<?xml version="1.0" standalone="no"?>
<!DOCTYPE svg PUBLIC "-//W3C//DTD SVG 1.1//EN" "http://www.w3.org/Graphics/SVG/1.1/DTD/svg11.dtd" >
<!--
2013-9-30: Created.
-->
<svg>
<metadata>
Created by iconfont
</metadata>
<defs>

<font id="iconfont" horiz-adv-x="1024" >
  <font-face
    font-family="iconfont"
    font-weight="500"
    font-stretch="normal"
    units-per-em="1024"
    ascent="896"
    descent="-128"
  />
    <missing-glyph />
    
    <glyph glyph-name="x" unicode="x" horiz-adv-x="1001"
d="M281 543q-27 -1 -53 -1h-83q-18 0 -36.5 -6t-32.5 -18.5t-23 -32t-9 -45.5v-76h912v41q0 16 -0.5 30t-0.5 18q0 13 -5 29t-17 29.5t-31.5 22.5t-49.5 9h-133v-97h-438v97zM955 310v-52q0 -23 0.5 -52t0.5 -58t-10.5 -47.5t-26 -30t-33 -16t-31.5 -4.5q-14 -1 -29.5 -0.5
t-29.5 0.5h-32l-45 128h-439l-44 -128h-29h-34q-20 0 -45 1q-25 0 -41 9.5t-25.5 23t-13.5 29.5t-4 30v167h911zM163 247q-12 0 -21 -8.5t-9 -21.5t9 -21.5t21 -8.5q13 0 22 8.5t9 21.5t-9 21.5t-22 8.5zM316 123q-8 -26 -14 -48q-5 -19 -10.5 -37t-7.5 -25t-3 -15t1 -14.5
t9.5 -10.5t21.5 -4h37h67h81h80h64h36q23 0 34 12t2 38q-5 13 -9.5 30.5t-9.5 34.5q-5 19 -11 39h-368zM336 498v228q0 11 2.5 23t10 21.5t20.5 15.5t34 6h188q31 0 51.5 -14.5t20.5 -52.5v-227h-327z" />
    

    
    <glyph glyph-name="navbar-portrait" unicode="&#58917;" d="M512 896C229.376 896 0 666.624 0 384s229.376-512 512-512 512 229.376 512 512-229.376 512-512 512z m0-170.688a142.08 142.08 0 0 0 142.208-142.208A142.08 142.08 0 0 0 512 440.896 142.08 142.08 0 0 0 369.792 583.04 142.08 142.08 0 0 0 512 725.312z m0-682.624c-118.528 0-223.296 57.792-284.416 145.344C228.992 277.88800000000003 417.216 327.10400000000004 512 327.10400000000004c94.336 0 283.008-49.216 284.416-139.072C735.36 100.48000000000002 630.528 42.68799999999999 512 42.68799999999999z"  horiz-adv-x="1024" />

    
    <glyph glyph-name="calendar" unicode="&#58918;" d="M752 624h40c22.08 0 40-17.92 40-40v-480c0-22.08-17.92-40-40-40h-560A40 40 0 0 0 192 104v480c0 22.08 17.92 40 40 40h40v9.984a70.016 70.016 0 1 0 140.032 0v-9.984h200v9.984a70.016 70.016 0 0 0 139.968 0v-9.984z m-520-160v-360h560V464h-560z m449.984 200a30.016 30.016 0 0 1-30.016-30.016v-99.968a30.016 30.016 0 1 1 60.032 0V633.9839999999999a30.016 30.016 0 0 1-30.016 30.016z m-339.968 0a30.016 30.016 0 0 1-30.016-30.016v-99.968a30.016 30.016 0 1 1 60.032 0V633.9839999999999a30.016 30.016 0 0 1-30.08 30.016zM272 424h120v-60.032H272v60.032z m0-110.016h120v-59.968H272v59.968z m0-110.016h120v-59.968H272v60.032z m180.032 220.032h120v-60.032H451.968v60.032z m0-110.016h120v-59.968H451.968v59.968z m0-110.016h120v-59.968H451.968v60.032z m179.968 220.032h120v-60.032H632v60.032z m0-110.016h120v-59.968H632v59.968z m0-110.016h120v-59.968H632v60.032z"  horiz-adv-x="1024" />

    
    <glyph glyph-name="recommended" unicode="&#58919;" d="M824.512 420.352c-45.376-55.232-125.632-146.496-125.632-146.496s13.12-100.16 20.48-168.576c3.2-34.816-21.952-49.92-50.432-36.352a27464 27464 0 0 0-155.136 78.848l-156.8-77.952c-28.8-13.568-54.272 1.472-51.072 36.288 7.488 68.288 20.736 168.32 20.736 168.32S245.504 365.568 199.552 420.8c-16.192 20.032-5.76 48.512 26.24 53.76 65.216 12.288 166.4 32 166.4 32s55.296 101.888 90.24 164.288c19.328 37.952 32.64 33.6 34.88 32.448 5.952-1.984 15.36-9.408 27.52-32.448 34.624-62.528 89.344-164.608 89.344-164.608s99.968-19.648 164.48-32c31.616-5.248 41.92-33.792 25.856-53.824z"  horiz-adv-x="1024" />

    
    <glyph glyph-name="recommend" unicode="&#58920;" d="M792.64 442.752l-55.68 10.752-1.92 0.384-73.664 14.4-33.344 6.528-14.912 2.88-7.168 13.44a20084.48 20084.48 0 0 1-57.152 105.792l-1.28 2.304a9292.352 9292.352 0 0 1-33.92 61.952l-3.2-6.08c-8.768-15.552-19.2-34.368-31.04-55.872l-1.28-2.368a20700.48 20700.48 0 0 1-57.792-105.664l-7.232-13.248-14.784-2.88-33.664-6.528a48480 48480 0 0 0-74.496-14.4L288 453.76l-57.088-10.88c-7.424-1.216-7.36-0.96-6.72-1.728a3611.072 3611.072 0 0 1 47.744-55.936 9055.232 9055.232 0 0 1 78.592-89.408l9.792-10.944-1.92-14.592a9386.304 9386.304 0 0 1-12.8-100.48l-1.728-14.464c-2.368-19.648-4.48-37.376-6.08-52.16-0.832-8.832-2.048-8 4.928-4.672l156.8 77.952 14.464 7.168 14.4-7.36c47.168-24.128 112.512-57.408 154.368-78.4 7.104-3.392 5.568-4.48 4.8 4.032-1.664 15.36-3.712 33.024-6.016 52.672l-1.728 14.72a10830.016 10830.016 0 0 1-12.672 100.48l-1.92 14.336 9.6 10.88a8589.376 8589.376 0 0 1 77.76 89.6l3.392 3.904c17.152 20.096 32 37.76 43.712 52.032 0.768 0.96 0.448 0.96-7.04 2.24z m31.872-22.4c-45.376-55.232-125.632-146.496-125.632-146.496s13.12-100.16 20.48-168.576c3.2-34.816-21.952-49.92-50.432-36.352a27464 27464 0 0 0-155.136 78.848l-156.8-77.952c-28.8-13.568-54.272 1.472-51.072 36.288 7.488 68.288 20.736 168.32 20.736 168.32S245.504 365.568 199.552 420.8c-16.192 20.032-5.76 48.512 26.24 53.76 65.216 12.288 166.4 32 166.4 32s55.296 101.888 90.24 164.288c19.328 37.952 32.64 33.6 34.88 32.448 5.952-1.984 15.36-9.408 27.52-32.448 34.624-62.528 89.344-164.608 89.344-164.608s99.968-19.648 164.48-32c31.616-5.248 41.92-33.792 25.856-53.824z"  horiz-adv-x="1024" />

    
    <glyph glyph-name="navbar-message" unicode="&#58921;" d="M594.112 0H426.88c-10.24 0-18.752-10.24-17.088-20.48 8.576-47.808 51.2-81.92 100.736-81.92 49.472 0 92.16 35.84 100.672 81.92a17.984 17.984 0 0 1-17.088 20.48zM565.76 846.592A72.064 72.064 0 0 1 512 870.4c-40 0-72.32-32.256-72.32-72.32v-32.704C301.44 732.608 204.8 608.768 204.8 460.8v-234.816a51.2 51.2 0 0 0-14.976-36.16l-72.448-72.448a51.2 51.2 0 0 1-14.976-36.16v-4.416c0-14.08 11.456-25.6 25.6-25.6h768a25.6 25.6 0 0 1 25.6 25.6v4.416a51.2 51.2 0 0 1-14.976 36.16l-72.448 72.448a51.2 51.2 0 0 0-14.976 36.16V416A262.4 262.4 0 0 0 565.696 846.592zM761.6 672m-224 0a224 224 0 1 1 448 0 224 224 0 1 1-448 0Z"  horiz-adv-x="1024" />

    
    <glyph glyph-name="search" unicode="&#58922;" d="M610.24 311.36a237.824 237.824 0 1 1-25.6-25.6c6.336-6.592 9.856-15.36 9.856-24.512v-14.656l171.648-171.264a16 16 0 0 1 22.656 0l31.872 31.872a16 16 0 0 1 0 22.656l-171.264 171.648h-14.72a35.264 35.264 0 0 0-24.448 9.856z m-180.416-9.856a164.48 164.48 0 0 0-164.608 164.672 164.48 164.48 0 0 0 164.608 164.608A164.48 164.48 0 0 0 594.56 466.176 164.48 164.48 0 0 0 429.824 301.44000000000005z"  horiz-adv-x="1024" />

    
    <glyph glyph-name="navbar-option" unicode="&#58923;" d="M269.952 793.6c31.68 0 55.872-24.192 55.872-55.872v-111.68a54.848 54.848 0 0 0-55.872-55.872H158.272a54.848 54.848 0 0 0-55.872 55.872V737.7280000000001c0 31.68 24.192 55.872 55.872 55.872h111.68z m0-595.84c31.68 0 55.872-24.128 55.872-55.808v-111.68a54.848 54.848 0 0 0-55.872-55.872H158.272a54.848 54.848 0 0 0-55.872 55.872v111.68c0 31.68 24.192 55.872 55.872 55.872h111.68z m0 297.92c31.68 0 55.872-24.192 55.872-55.808v-111.744a54.848 54.848 0 0 0-55.872-55.808H158.272a54.848 54.848 0 0 0-55.872 55.808V439.872c0 31.616 24.192 55.808 55.872 55.808h111.68zM567.872 793.6c31.616 0 55.808-24.192 55.808-55.872v-111.68a54.848 54.848 0 0 0-55.808-55.872H456.128a54.848 54.848 0 0 0-55.808 55.872V737.7280000000001c0 31.68 24.192 55.872 55.808 55.872h111.744z m0-595.84c31.616 0 55.808-24.128 55.808-55.808v-111.68a54.848 54.848 0 0 0-55.808-55.872H456.128a54.848 54.848 0 0 0-55.808 55.872v111.68c0 31.68 24.192 55.872 55.808 55.872h111.744z m0 297.92c31.616 0 55.808-24.192 55.808-55.808v-111.744a54.848 54.848 0 0 0-55.808-55.808H456.128a54.848 54.848 0 0 0-55.808 55.808V439.872c0 31.616 24.192 55.808 55.808 55.808h111.744zM865.728 793.6c31.68 0 55.872-24.192 55.872-55.872v-111.68a54.848 54.848 0 0 0-55.872-55.872h-111.68a54.848 54.848 0 0 0-55.872 55.872V737.7280000000001c0 31.68 24.192 55.872 55.872 55.872h111.68z m0-595.84c31.68 0 55.872-24.128 55.872-55.808v-111.68a54.848 54.848 0 0 0-55.872-55.872h-111.68a54.848 54.848 0 0 0-55.872 55.872v111.68c0 31.68 24.192 55.872 55.872 55.872h111.68z m0 297.92c31.68 0 55.872-24.192 55.872-55.808v-111.744a54.848 54.848 0 0 0-55.872-55.808h-111.68a54.848 54.848 0 0 0-55.872 55.808V439.872c0 31.616 24.192 55.808 55.872 55.808h111.68z"  horiz-adv-x="1024" />

    
    <glyph glyph-name="sequencing" unicode="&#58924;" d="M480 700.416v-624.896c0-4.608-6.272-11.52-11.456-11.52h-53.952c-5.952 0-11.52 5.76-11.52 11.52V493.888c0 32-14.336 38.528-36.672 17.216l-85.12-77.312c-4.736-4.992-11.328-4.992-16.064 0l-37.824 39.68c-4.48 4.8-4.48 10.88 0 15.616l198.016 208.128c10.368 10.24 54.592 6.784 54.592 3.2z m64-632.832V692.48c0 4.608 6.272 11.52 11.456 11.52h53.952c5.952 0 11.52-5.76 11.52-11.52v-418.368c0-32 14.336-38.528 36.672-17.216l85.12 77.312c4.736 4.992 11.328 4.992 16.064 0l37.824-39.68c4.48-4.8 4.48-10.88 0-15.616l-198.016-208.128c-10.368-10.24-54.592-6.784-54.592-3.2z"  horiz-adv-x="1024" />

    
    <glyph glyph-name="navbar-nonmessage" unicode="&#58925;" d="M594.112 0H426.88c-10.24 0-18.752-10.24-17.088-20.48 8.576-47.808 51.2-81.92 100.736-81.92 49.472 0 92.16 35.84 100.672 81.92a17.984 17.984 0 0 1-17.088 20.48z m225.088 225.984v234.88c0 147.84-96.64 271.744-234.88 304.512v32.768C584.32 838.144 551.936 870.4 512 870.4c-40 0-72.32-32.256-72.32-72.32v-32.704C301.44 732.608 204.8 608.768 204.8 460.8v-234.816a51.2 51.2 0 0 0-14.976-36.16l-72.448-72.448a51.2 51.2 0 0 1-14.976-36.16v-4.416c0-14.08 11.456-25.6 25.6-25.6h768a25.6 25.6 0 0 1 25.6 25.6v4.416a51.2 51.2 0 0 1-14.976 36.16l-72.448 72.448a51.2 51.2 0 0 0-14.976 36.16z"  horiz-adv-x="1024" />

    
    <glyph glyph-name="triangle-pickup" unicode="&#58926;" d="M750.464 256H272.832c-13.44 0-22.912 13.888-12.16 23.488L494.08 505.6c8.128 8.512 25.6 8.512 33.728 0l236.16-226.112c9.408-9.6 1.28-23.488-13.504-23.488z"  horiz-adv-x="1024" />

    
    <glyph glyph-name="collection" unicode="&#58927;" d="M512 631.104C477.12 675.776 423.68 704 368 704 269.44 704 192 619.584 192 512.192c0-131.84 108.8-239.296 273.6-402.56l1.28-1.28a64 64 0 0 1 90.048 0.192l1.472 1.472C723.2 272.896 832 380.352 832 512.192 832 619.52 754.56 704 656 704 600.32 704 546.88 675.776 512 631.104z"  horiz-adv-x="1024" />

    
    <glyph glyph-name="clues" unicode="&#58928;" d="M614.656 137.856a289.088 289.088 0 0 0-27.648-9.664c-15.68-3.52-30.912-7.104-46.144-10.368-9.92-2.048-19.84-3.84-29.888-5.312-8.192-1.216-16.448-1.92-24.704-2.368-13.568-0.768-27.136-1.728-40.704-1.472a184.128 184.128 0 0 0-63.232 11.712 102.4 102.4 0 0 0-40.832 27.328 77.44 77.44 0 0 0-18.56 37.12 115.456 115.456 0 0 0 7.68 70.656c6.272 14.016 14.592 26.56 24.64 38.08 14.208 16.256 29.888 30.72 48 42.496 14.528 9.408 29.248 18.56 44.288 27.136a495.872 495.872 0 0 0 71.552 31.808c16.448 6.144 32.064 14.208 46.912 23.808a181.76 181.76 0 0 1 34.432 27.584c12.8 13.568 22.4 28.8 27.392 47.104a63.104 63.104 0 0 1-4.48 44.864 99.776 99.776 0 0 1-23.04 32.448 90.24 90.24 0 0 1-26.624 16.512 115.2 115.2 0 0 1-38.4 8.512c-10.112 0.512-20.288 1.28-30.4 0.64a321.28 321.28 0 0 1-59.776-9.984c-1.28-0.384-15.872-4.928-30.144-9.856a112 112 0 1 0-2.944 45.056c8.128 2.24 15.232 4.416 16.32 4.608 15.232 3.456 30.464 7.04 45.888 9.664 10.496 1.792 21.248 2.368 31.872 3.2 6.528 0.512 13.12 1.088 19.584 0.704 23.232-1.152 46.016-4.672 67.648-14.08 18.816-8.064 34.752-19.84 48-35.072 13.248-15.232 21.952-33.152 28.032-52.416 3.84-12.288 4.288-24.576 3.2-37.312-1.536-16.896-6.528-32.64-14.208-47.552a162.048 162.048 0 0 0-22.272-32.064 220.224 220.224 0 0 0-56.384-44.992c-17.152-9.984-35.2-18.176-53.952-25.024a524.224 524.224 0 0 1-31.424-13.12 417.792 417.792 0 0 1-62.656-34.688 219.776 219.776 0 0 1-42.24-36.48c-11.2-12.48-20.288-26.432-24.128-43.2a59.264 59.264 0 0 1 3.52-40.32 43.52 43.52 0 0 1 19.456-18.304c12.288-6.656 25.408-10.56 39.296-11.84 9.28-0.896 18.56-2.368 27.84-2.176 13.376 0.32 26.688 1.664 40.064 2.944 26.88 2.56 52.992 9.152 79.104 15.488 2.56 0.64 18.752 5.952 33.536 11.52a112 112 0 1 0 6.528-43.328z"  horiz-adv-x="1024" />

    
    <glyph glyph-name="business" unicode="&#58929;" d="M328.768 582.528c9.408 11.328 19.84 21.76 31.232 31.232l-56.32 53.44a23.488 23.488 0 0 1-32 0 20.672 20.672 0 0 1 0-30.4l57.088-54.272z m183.104 86.016h0.64c7.424 0 14.784-0.448 22.016-1.152V740.288a22.08 22.08 0 0 1-22.656 21.504 22.08 22.08 0 0 1-22.656-21.504v-72.896c7.296 0.64 14.592 1.152 22.08 1.152h0.64z m183.36-85.888l57.152 54.208a20.672 20.672 0 0 1 0 30.464 23.488 23.488 0 0 1-32 0l-56.384-53.504c11.328-9.472 21.632-19.968 31.232-31.168zM273.024 430.016c0 10.368 0.96 20.544 2.176 30.656H194.688a22.144 22.144 0 0 1-22.656-21.568c0-11.904 10.048-21.504 22.656-21.504h78.72a245.632 245.632 0 0 0-0.384 12.416z m556.16 30.656h-80.512c1.344-10.112 2.176-20.288 2.176-30.656 0-4.288-0.128-8.32-0.192-12.416h78.72c12.544 0 22.656 9.6 22.656 21.504a22.4 22.4 0 0 1-22.784 21.568z m-122.112-176.384c-9.216-12.8-19.008-23.936-28.416-33.92l41.472-39.424a23.488 23.488 0 0 1 32 0 20.672 20.672 0 0 1 0 30.464l-45.056 42.88z m-435.584-42.88a20.672 20.672 0 0 1 0-30.464 23.488 23.488 0 0 1 32.064 0l41.6 39.424a346.304 346.304 0 0 0-28.416 33.92l-45.248-42.88z m447.936 188.608c0 44.608-15.616 85.824-42.048 118.912a207.36 207.36 0 0 1-90.944 65.088l0.192 0.96-15.552 4.352a224.96 224.96 0 0 1-37.248 6.912l-1.792 0.192h-0.256a207.872 207.872 0 0 1-19.456 0.96h-1.024c-6.72 0-13.248-0.384-19.52-0.96h-0.064l-1.92-0.192c-12.608-1.28-25.024-3.584-37.12-6.912l-14.976-4.16 0.192-0.96a208.512 208.512 0 0 1-91.456-65.28 190.08 190.08 0 0 1-41.92-118.912c0-32 5.76-58.304 14.848-80 13.632-32.64 34.432-54.656 51.072-71.424 8.32-8.32 15.744-15.488 20.736-21.504 5.12-6.144 7.552-10.88 8.256-14.656 3.648-18.304 3.968-41.28 3.968-47.168v-1.664c0-26.432 22.592-47.744 50.304-47.744h116.352c27.904 0 50.368 21.376 50.368 47.744v1.664c0 5.76 0.384 28.864 3.968 47.168a25.664 25.664 0 0 0 3.968 9.024c3.968 6.208 11.52 13.824 20.864 23.168 13.952 13.952 31.744 31.488 45.824 56.32 14.272 24.832 24.32 57.152 24.32 99.072zM569.6 132.672H454.208a21.12 21.12 0 0 1-21.632-20.544 21.12 21.12 0 0 1 21.632-20.544h115.456a21.12 21.12 0 0 1 21.632 20.48 21.12 21.12 0 0 1-21.632 20.608z m0-51.84H454.208a21.12 21.12 0 0 1-21.632-20.544 21.12 21.12 0 0 1 21.632-20.544h115.456a21.12 21.12 0 0 1 21.632 20.544 21.12 21.12 0 0 1-21.632 20.48z m-47.68-52.224h-59.392l-0.128-1.856c0-11.328 18.432-20.48 35.328-20.48h28.16c17.088 0 35.328 9.152 35.328 20.48l-0.064 1.856h-39.232z"  horiz-adv-x="1024" />

    
    <glyph glyph-name="sidebar-top" unicode="&#58930;" d="M204.544 301.568l262.528 258.688a64 64 0 0 0 89.856 0l262.528-258.688A64 64 0 0 0 774.528 192H249.472a64 64 0 0 0-44.928 109.568z"  horiz-adv-x="1024" />

    
    <glyph glyph-name="event" unicode="&#58931;" d="M810.24 464H213.76c-11.52 0-21.76-9.344-21.76-20.032v-326.656c0-29.312 26.24-53.312 58.24-53.312h523.52c32 0 58.24 24 58.24 53.312V443.968c0 10.688-10.24 20.032-21.76 20.032z m-400-299.2c0-8.704-5.888-14.528-14.592-14.528h-58.24c-8.704 0-14.528 5.824-14.528 14.528v58.048c0 8.704 5.824 14.464 14.592 14.464h58.176c8.704 0 14.528-5.76 14.528-14.464v-58.048z m0 133.312c0-8.704-5.888-14.464-14.592-14.464h-58.24c-8.704 0-14.528 5.76-14.528 14.464v58.048c0 8.704 5.824 14.528 14.592 14.528h58.176c8.704 0 14.528-5.824 14.528-14.528v-58.048z m145.408-133.312c0-8.704-5.824-14.528-14.528-14.528h-58.24c-8.704 0-14.528 5.824-14.528 14.528v58.048c0 8.704 5.824 14.464 14.528 14.464h58.24c8.704 0 14.528-5.76 14.528-14.464v-58.048z m0 133.312c0-8.704-5.824-14.464-14.528-14.464h-58.24c-8.704 0-14.528 5.76-14.528 14.464v58.048c0 8.704 5.824 14.528 14.528 14.528h58.24c8.704 0 14.528-5.824 14.528-14.528v-58.048z m145.472-133.312c0-8.704-5.824-14.528-14.592-14.528h-58.176c-8.704 0-14.528 5.824-14.528 14.528v58.048c0 8.704 5.76 14.464 14.528 14.464h58.24c8.704 0 14.528-5.76 14.528-14.464v-58.048z m0 133.312c0-8.704-5.824-14.464-14.592-14.464h-58.176c-8.704 0-14.528 5.76-14.528 14.464v58.048c0 8.704 5.76 14.528 14.528 14.528h58.24c8.704 0 14.528-5.824 14.528-14.528v-58.048z m72.704 339.2h-72.704v26.688c0 21.312-18.944 40-43.648 40-23.296 0-43.648-17.28-43.648-40v-26.688H410.176v26.688c0 21.312-18.88 40-43.648 40-23.232 0-43.648-17.28-43.648-40v-26.688H250.24c-32 0-58.176-24-58.176-53.312v-33.28c0-10.752 10.24-20.032 21.76-20.032h596.48c11.52 0 21.76 9.344 21.76 19.968v33.344c0 29.312-26.24 53.312-58.24 53.312z"  horiz-adv-x="1024" />

    
    <glyph glyph-name="product" unicode="&#58932;" d="M236.16 652.096h192a32 32 0 0 0 32-32v-192a32 32 0 0 0-32-32h-192a32 32 0 0 0-32 32v192a32 32 0 0 0 32 32z m0-320h192a32 32 0 0 0 32-32v-192a32 32 0 0 0-32-32h-192a32 32 0 0 0-32 32v192a32 32 0 0 0 32 32z m320 0h192a32 32 0 0 0 32-32v-192a32 32 0 0 0-32-32h-192a32 32 0 0 0-32 32v192a32 32 0 0 0 32 32z m118.656 350.4l135.68-135.808a32 32 0 0 0 0-45.248l-135.68-135.744a32 32 0 0 0-45.312 0l-135.68 135.744a32 32 0 0 0 0 45.248l135.68 135.808a32 32 0 0 0 45.312 0z"  horiz-adv-x="1024" />

    
    <glyph glyph-name="triangle-dropdown" unicode="&#58933;" d="M275.2 512h480c12.8 0 25.6-12.8 12.8-25.6L531.2 262.4c-6.4-6.4-25.6-6.4-32 0L262.4 486.4c-12.8 12.8-6.4 25.6 12.8 25.6zM275.2 512h480c12.8 0 25.6-12.8 12.8-25.6L531.2 262.4c-6.4-6.4-25.6-6.4-32 0L262.4 486.4c-12.8 12.8-6.4 25.6 12.8 25.6z"  horiz-adv-x="1024" />

    
    <glyph glyph-name="form-close" unicode="&#58934;" d="M659.2 704H364.8C268.8 704 192 627.2 192 531.2v-300.8C192 140.79999999999995 268.8 64 364.8 64h300.8c96 0 172.8 76.8 172.8 172.8V531.2C832 627.2 755.2 704 659.2 704z m44.8-339.2c0-6.4-12.8-19.2-25.6-19.2H345.6c-12.8 0-25.6 6.4-25.6 19.2v44.8c0 6.4 12.8 19.2 25.6 19.2h332.8c12.8 0 25.6-6.4 25.6-19.2v-44.8z"  horiz-adv-x="1024" />

    
    <glyph glyph-name="form-open" unicode="&#58935;" d="M362.688 704h298.624A170.688 170.688 0 0 0 832 533.312v-298.624A170.688 170.688 0 0 0 661.312 64H362.688A170.688 170.688 0 0 0 192 234.688V533.312A170.688 170.688 0 0 0 362.688 704zM704 360v48a12.928 12.928 0 0 1-12.032 12.032H560c-7.232 0-12.032 4.8-12.032 11.968V564.0319999999999A12.032 12.032 0 0 1 536.064 576h-48a12.928 12.928 0 0 1-12.032-12.032V432c0-7.168-4.8-12.032-11.968-12.032H331.968A12.928 12.928 0 0 1 320 408v-48c0-7.232 4.8-12.032 12.032-12.032H464c7.168 0 12.032-4.736 12.032-11.968v-132.032c0-7.168 4.8-11.968 11.968-11.968h48a12.928 12.928 0 0 1 12.032 12.032V336c0 6.016 5.952 12.032 11.968 12.032h132.032c7.168 0 11.968 4.736 11.968 11.968z"  horiz-adv-x="1024" />

    
    <glyph glyph-name="add" unicode="&#58936;" d="M512 704a320 320 0 1 0-320-320 320 320 0 0 0 320 320z m192-344v48a12.928 12.928 0 0 1-12.032 12.032H560c-7.232 0-12.032 4.8-12.032 11.968V564.032A12.032 12.032 0 0 1 536.064 576h-48a12.928 12.928 0 0 1-12.032-12.032V432c0-7.168-4.8-12.032-11.968-12.032H331.968A12.928 12.928 0 0 1 320 408v-48c0-7.232 4.8-12.032 12.032-12.032H464c7.168 0 12.032-4.736 12.032-11.968v-132.032c0-7.168 4.8-11.968 11.968-11.968h48a12.928 12.928 0 0 1 12.032 12.032V336c0 6.016 5.952 12.032 11.968 12.032h132.032c7.168 0 11.968 4.736 11.968 11.968z"  horiz-adv-x="1024" />

    
    <glyph glyph-name="sidebar-add" unicode="&#58937;" d="M448 448H256a64 64 0 1 1 0-128h192v-192a64 64 0 0 1 128 0V320h192a64 64 0 0 1 0 128H576V640a64 64 0 1 1-128 0v-192z"  horiz-adv-x="1024" />

    
    <glyph glyph-name="delete" unicode="&#58938;" d="M512 704a320 320 0 1 0-320-320 320 320 0 0 0 320 320z m190.784-341.76c1.6 14.08 1.6 28.16 0 43.52-1.6 8.96-11.2 16.64-24.064 16.64h-333.44c-12.8 0-22.464-7.68-24.064-16.64-1.6-14.08-1.6-28.16 0-43.52 1.6-10.24 11.2-16.64 24.064-16.64h333.44c12.8 0 22.464 7.68 24.064 16.64z"  horiz-adv-x="1024" />

    
    <glyph glyph-name="share" unicode="&#58940;" d="M377.6 492.8l236.8 89.6v12.8c0 57.6 51.2 108.8 108.8 108.8s108.8-51.2 108.8-108.8c0-57.6-51.2-108.8-108.8-108.8-38.4 0-76.8 19.2-96 51.2L403.2 454.4c6.4-12.8 6.4-25.6 6.4-38.4 0-19.2-6.4-38.4-12.8-57.6L550.4 256c19.2 19.2 44.8 32 76.8 32 57.6 0 108.8-51.2 108.8-108.8 0-57.6-51.2-108.8-108.8-108.8-64-6.4-115.2 44.8-115.2 102.4 0 12.8 0 25.6 6.4 38.4L364.8 320c-19.2-6.4-38.4-19.2-64-19.2-57.6 0-108.8 51.2-108.8 115.2s51.2 108.8 108.8 108.8c32 0 57.6-12.8 76.8-32z"  horiz-adv-x="1024" />

    
    <glyph glyph-name="input-pickup" unicode="&#58946;" d="M198.4 275.20000000000005l300.8 281.6c6.4 6.4 25.6 6.4 32 0L832 275.20000000000005c6.4-6.4 6.4-19.2 0-32l-32-32c-6.4-6.4-25.6-6.4-32 0L524.8 435.2c-6.4 6.4-25.6 6.4-32 0L256 217.60000000000002c-6.4-6.4-25.6-6.4-32 0l-32 32c0 6.4 0 12.8 6.4 25.6z"  horiz-adv-x="1024" />

    
    <glyph glyph-name="input-dropdown" unicode="&#58947;" d="M780.8 480l-256-243.2c-6.4-6.4-19.2-6.4-25.6 0l-256 243.2c-6.4 6.4-6.4 19.2 0 25.6l25.6 25.6c6.4 6.4 19.2 6.4 25.6 0l204.8-192c6.4-6.4 19.2-6.4 25.6 0l204.8 192c6.4 6.4 19.2 6.4 25.6 0l25.6-25.6c6.4-6.4 6.4-19.2 0-25.6z"  horiz-adv-x="1024" />

    
    <glyph glyph-name="readmore" unicode="&#58950;" d="M793.6 300.8l-256-230.4c-12.8-12.8-32-12.8-44.8 0l-256 230.4c-12.8 12.8-12.8 25.6 0 38.4l44.8 38.4c12.8 12.8 32 12.8 44.8 0l172.8-160c12.8-12.8 32-12.8 44.8 0l172.8 160c12.8 12.8 32 12.8 44.8 0l44.8-38.4c-6.4-12.8-6.4-25.6-12.8-38.4z m0 320L531.2 384c-6.4-6.4-25.6-6.4-38.4 0l-256 236.8c-12.8 12.8-12.8 25.6 0 38.4l44.8 38.4c6.4 6.4 25.6 6.4 38.4 0l172.8-160c12.8-12.8 32-12.8 44.8 0l172.8 160c12.8 12.8 32 12.8 44.8 0l44.8-38.4c0-12.8 0-32-6.4-38.4zM793.6 300.8l-256-230.4c-12.8-12.8-32-12.8-44.8 0l-256 230.4c-12.8 12.8-12.8 25.6 0 38.4l44.8 38.4c12.8 12.8 32 12.8 44.8 0l172.8-160c12.8-12.8 32-12.8 44.8 0l172.8 160c12.8 12.8 32 12.8 44.8 0l44.8-38.4c-6.4-12.8-6.4-25.6-12.8-38.4z m0 320L531.2 384c-6.4-6.4-25.6-6.4-38.4 0l-256 236.8c-12.8 12.8-12.8 25.6 0 38.4l44.8 38.4c6.4 6.4 25.6 6.4 38.4 0l172.8-160c12.8-12.8 32-12.8 44.8 0l172.8 160c12.8 12.8 32 12.8 44.8 0l44.8-38.4c0-12.8 0-32-6.4-38.4z"  horiz-adv-x="1024" />

    
    <glyph glyph-name="close" unicode="&#58951;" d="M761.6 576c6.4 6.4 6.4 19.2 0 32l-25.6 32c-12.8 0-25.6 0-32-6.4L524.8 448h-19.2L320 633.6c-6.4 6.4-19.2 6.4-25.6 0l-32-32c-6.4-6.4-6.4-19.2 0-25.6L448 396.8v-19.2L262.4 192c-6.4-6.4-6.4-19.2 0-32l32-32c6.4 0 19.2 0 25.6 6.4l179.2 179.2c6.4 6.4 19.2 6.4 25.6 0l179.2-179.2c6.4-6.4 19.2-6.4 32 0l32 32c6.4 6.4 6.4 19.2 0 32L582.4 371.2c-6.4 6.4-6.4 19.2 0 19.2L761.6 576zM761.6 576c6.4 6.4 6.4 19.2 0 32l-25.6 32c-12.8 0-25.6 0-32-6.4L524.8 448h-19.2L320 633.6c-6.4 6.4-19.2 6.4-25.6 0l-32-32c-6.4-6.4-6.4-19.2 0-25.6L448 396.8v-19.2L262.4 192c-6.4-6.4-6.4-19.2 0-32l32-32c6.4 0 19.2 0 25.6 6.4l179.2 179.2c6.4 6.4 19.2 6.4 25.6 0l179.2-179.2c6.4-6.4 19.2-6.4 32 0l32 32c6.4 6.4 6.4 19.2 0 32L582.4 371.2c-6.4 6.4-6.4 19.2 0 19.2L761.6 576z"  horiz-adv-x="1024" />

    
    <glyph glyph-name="money" unicode="&#58952;" d="M398.656 671.232l3.648-8 40.192-51.904h131.648l40.256 51.904 3.648 8V675.2c0 8-3.648 16-10.944 16 0 0-51.2 11.968-98.752 11.968C460.8 707.2 409.6 695.168 409.6 695.168a22.336 22.336 0 0 1-10.944-19.968v-3.968z m179.2-95.872H446.08C340.096 535.424 256 403.584 256 283.712 256 135.872 332.8 64 512 64s256 71.936 256 219.712c0 119.872-84.096 251.712-190.144 291.648z m43.84-231.68H548.544v-40h73.152v-39.936H548.544v-79.872H475.52V263.68H402.304v39.936h73.152V343.68H402.304v40h73.152l-54.912 63.872 25.6 27.968L512 399.552l65.856 71.936 25.6-27.968-54.912-59.904h73.152v-40z"  horiz-adv-x="1024" />

    
    <glyph glyph-name="custom" unicode="&#58953;" d="M829.76 159.872a52.8 52.8 0 0 0-6.208-19.072c-1.92-2.752-7.488-5.504-16.64-8.32-9.152-2.752-20.48-5.376-33.92-8-13.504-2.56-28.48-4.864-45.056-6.784l-3.84-0.384c0 1.152 0.32 2.048 0.32 3.2 0 11.712-0.64 23.616-1.856 35.2a189.952 189.952 0 0 1-6.976 36.224 117.376 117.376 0 0 1-41.984 59.264 185.088 185.088 0 0 1-44.16 23.744 421.376 421.376 0 0 1-39.36 12.864 224.768 224.768 0 0 0-17.728 5.632c7.68 7.68 14.464 16.96 19.84 27.52 3.648 7.04 6.912 14.528 9.856 22.016l0.128 0.512c8.512 7.68 16.128 17.92 22.208 29.824 6.4 12.48 10.368 26.688 11.968 43.264a111.104 111.104 0 0 1-10.688 63.744 470.464 470.464 0 0 1-2.88 34.24 349.888 349.888 0 0 1-12.416 55.168 191.872 191.872 0 0 1-33.92 64 148.352 148.352 0 0 1-30.464 28.672A204.544 204.544 0 0 1 512 682.24c6.912 4.544 13.952 8.704 21.12 11.648 9.536 3.968 19.136 6.592 28.672 8 9.472 1.344 18.816 2.112 27.776 2.112 11.392 0 22.592-1.28 33.664-3.84 11.072-2.56 21.504-6.016 31.296-10.432 9.792-4.416 18.368-9.28 26.112-14.912 7.616-5.504 13.44-11.136 17.856-16.64 10.112-12.672 17.536-26.688 22.208-41.984 4.672-15.232 8.064-29.888 9.92-43.648 2.048-15.872 2.944-32 2.944-48.256a21.248 21.248 0 0 0 6.4-7.68c1.536-2.816 2.816-6.4 3.84-10.816a46.208 46.208 0 0 0 0.256-16 56.96 56.96 0 0 0-4.992-19.968 38.08 38.08 0 0 0-8.512-11.584 27.904 27.904 0 0 0-11.136-6.528 615.68 615.68 0 0 0-5.76-19.072 160.64 160.64 0 0 0-6.784-15.168 38.08 38.08 0 0 0-8.512-11.584 397.632 397.632 0 0 1-18.112-15.168c-4.608-4.16-7.808-11.264-9.344-21.184-1.152-5.888-1.536-11.968-1.152-18.112a49.408 49.408 0 0 1 4.928-18.432 56.704 56.704 0 0 1 13.568-17.536c6.016-5.568 14.464-10.496 25.472-14.912 9.792-3.968 20.352-7.552 31.872-10.752 11.52-3.2 22.784-6.848 33.664-11.008 10.944-4.096 20.544-9.28 28.992-15.424 8.32-6.144 14.336-14.656 17.856-25.28 1.984-6.4 3.456-14.208 4.48-23.488a201.6 201.6 0 0 0-0.832-54.72zM560.64 564.416c4.608-15.04 8-29.44 9.92-43.008 1.984-15.552 2.88-31.424 2.88-47.488 2.752-1.92 4.928-4.48 6.464-7.552a40.064 40.064 0 0 0 4.096-26.368 54.784 54.784 0 0 0-4.992-19.648 37.568 37.568 0 0 0-8.576-11.456 28.992 28.992 0 0 0-11.072-6.4 591.424 591.424 0 0 0-5.888-18.752 136.96 136.96 0 0 0-6.72-14.976 37.568 37.568 0 0 0-8.512-11.392 396.8 396.8 0 0 1-18.176-14.912c-4.736-4.096-7.808-11.072-9.344-20.864-1.216-5.76-1.6-11.776-1.216-17.856a48.448 48.448 0 0 1 4.992-18.112 55.936 55.936 0 0 1 13.568-17.28c6.08-5.44 14.528-10.368 25.472-14.72 9.856-3.84 20.48-7.36 32-10.56s22.784-6.72 33.664-10.752c11.008-4.096 20.672-9.152 29.12-15.232a48.576 48.576 0 0 0 17.92-24.96c1.856-6.208 3.328-13.888 4.288-23.04 1.024-9.152 1.472-18.496 1.472-27.84 0-9.344-0.704-18.112-2.112-26.368a49.728 49.728 0 0 0-6.144-18.752c-1.984-2.688-7.552-5.376-16.704-8.128a348.8 348.8 0 0 0-34.048-7.872c-13.44-2.56-28.544-4.8-45.184-6.72-16.64-1.92-33.28-3.584-50.112-4.992-16.832-1.28-32.96-2.432-48.448-3.2-15.36-0.832-28.8-1.216-40.128-1.216s-24.512 0.384-39.616 1.152a1539.136 1539.136 0 0 0-94.336 8 1139.84 1139.84 0 0 0-43.072 5.504 536.32 536.32 0 0 0-32.896 5.888c-8.96 1.984-14.592 3.904-16.96 5.888-3.904 3.072-6.912 12.672-9.088 28.736-2.176 16-1.28 36.672 2.624 62.08 1.984 14.336 7.68 25.408 17.344 33.024 9.6 7.616 20.736 13.696 33.472 18.112 12.672 4.48 25.856 8.512 39.552 11.968 13.76 3.52 25.792 8.576 36.352 15.232 8.32 5.056 14.464 9.92 18.816 14.656a52.224 52.224 0 0 1 9.408 14.08 38.784 38.784 0 0 1 2.944 14.592c0 5.12-0.192 10.688-0.576 16.96a32.64 32.64 0 0 1-9.344 21.376 303.168 303.168 0 0 1-18.176 16.128 34.24 34.24 0 0 0-8.128 11.392 180.8 180.8 0 0 0-6.464 14.976 472.96 472.96 0 0 0-5.888 18.752 28.736 28.736 0 0 0-8.192 4.096 45.888 45.888 0 0 0-14.592 23.488 40.32 40.32 0 0 0-2.688 18.048 49.152 49.152 0 0 0 3.264 14.08 38.272 38.272 0 0 0 7.68 12.288 280.832 280.832 0 0 0 10.88 84.864c4.096 14.4 10.24 27.328 18.432 38.592 7.424 10.944 15.68 19.84 24.896 26.624 9.152 6.784 18.56 12.224 28.16 16.128 9.536 3.84 19.2 6.528 28.672 7.872 9.6 1.344 18.88 2.112 27.904 2.112a169.216 169.216 0 0 0 65.024-14.08c9.792-4.352 18.432-9.152 26.176-14.656 7.616-5.44 13.504-10.944 17.92-16.384 9.856-12.416 17.28-26.24 22.016-41.152z"  horiz-adv-x="1024" />

    
    <glyph glyph-name="toast-wrong" unicode="&#58954;" d="M512-127.99104a501.751219 501.751219 0 0 0-199.356511 39.9993 513.783009 513.783009 0 0 0-163.069146 109.566082 513.783009 513.783009 0 0 0-109.566083 163.069147A501.751219 501.751219 0 0 0 0.00896 384a501.751219 501.751219 0 0 0 39.9993 199.356511 513.783009 513.783009 0 0 0 109.566083 163.069147A513.783009 513.783009 0 0 0 312.643489 855.99174 501.751219 501.751219 0 0 0 512 895.99104a501.751219 501.751219 0 0 0 199.356511-39.9993 513.783009 513.783009 0 0 0 163.069147-109.566082 513.783009 513.783009 0 0 0 109.566082-163.069147A501.751219 501.751219 0 0 0 1023.99104 384a501.751219 501.751219 0 0 0-39.9993-199.356511 513.783009 513.783009 0 0 0-109.566082-163.069147 513.783009 513.783009 0 0 0-163.069147-109.566082A501.751219 501.751219 0 0 0 512-127.99104z m235.067886 660.916434a24.319574 24.319574 0 0 1 7.359872 17.855687 24.319574 24.319574 0 0 1-7.359872 17.855688l-52.927073 51.647096a23.615587 23.615587 0 0 1-34.431398 0L512 472.638449 363.074606 620.283865a23.615587 23.615587 0 0 1-34.431397 0l-52.927074-51.647096a26.943528 26.943528 0 0 1-6.143892-17.919687c0-6.911879 2.047964-12.863775 6.143892-17.791688l148.925394-147.709415-148.925394-147.645416a26.943528 26.943528 0 0 1-6.143892-17.919687c0-6.911879 2.047964-12.863775 6.143892-17.791689l52.927074-51.711095a23.615587 23.615587 0 0 1 34.431397 0L512 297.85750700000006l147.709415-147.709415a23.615587 23.615587 0 0 1 34.431398 0l52.927073 51.711095a24.319574 24.319574 0 0 1 7.359872 17.855688 24.319574 24.319574 0 0 1-7.359872 17.855688L598.142493 385.215979l148.925393 147.709415z"  horiz-adv-x="1024" />

    
    <glyph glyph-name="toast-warning" unicode="&#58955;" d="M512 895.99104a501.751219 501.751219 0 0 0 199.356511-39.9993 513.783009 513.783009 0 0 0 163.069147-109.566082 513.783009 513.783009 0 0 0 109.566082-163.069147A501.751219 501.751219 0 0 0 1023.99104 384a501.751219 501.751219 0 0 0-39.9993-199.356511 513.783009 513.783009 0 0 0-109.566082-163.069147 513.783009 513.783009 0 0 0-163.069147-109.566082A501.751219 501.751219 0 0 0 512-127.99104a501.751219 501.751219 0 0 0-199.356511 39.9993 513.783009 513.783009 0 0 0-163.069146 109.566082 513.783009 513.783009 0 0 0-109.566083 163.069147A501.751219 501.751219 0 0 0 0.00896 384a501.751219 501.751219 0 0 0 39.9993 199.356511 513.783009 513.783009 0 0 0 109.566083 163.069147A513.783009 513.783009 0 0 0 312.643489 855.99174 501.751219 501.751219 0 0 0 512 895.99104z m59.070966-546.422437V625.211779a56.959003 56.959003 0 0 1-17.279697 41.855267 56.959003 56.959003 0 0 1-41.791269 17.279698 56.959003 56.959003 0 0 1-41.855267-17.279698 56.959003 56.959003 0 0 1-17.279698-41.855267v-275.643176c0-16.447712 5.759899-30.399468 17.279698-41.855268 11.519798-11.519798 25.471554-17.279698 41.855267-17.279698a56.959003 56.959003 0 0 1 41.855268 17.279698 56.959003 56.959003 0 0 1 17.279697 41.855268z m-59.070966-255.995521a56.959003 56.959003 0 0 1 41.855268 17.215699 56.959003 56.959003 0 0 1 17.279697 41.855268 56.959003 56.959003 0 0 1-17.279697 41.791268 56.959003 56.959003 0 0 1-41.855268 17.279698 56.959003 56.959003 0 0 1-41.855267-17.279698 56.959003 56.959003 0 0 1-17.279698-41.791268c0-16.447712 5.759899-30.399468 17.279698-41.855268 11.519798-11.519798 25.471554-17.279698 41.855267-17.279697z"  horiz-adv-x="1024" />

    
    <glyph glyph-name="toast-right" unicode="&#58956;" d="M512 895.99104a501.751219 501.751219 0 0 0 199.356511-39.9993 513.783009 513.783009 0 0 0 163.069147-109.566082 513.783009 513.783009 0 0 0 109.566082-163.069147A501.751219 501.751219 0 0 0 1023.99104 384a501.751219 501.751219 0 0 0-39.9993-199.356511 513.783009 513.783009 0 0 0-109.566082-163.069147 513.783009 513.783009 0 0 0-163.069147-109.566082A501.751219 501.751219 0 0 0 512-127.99104a501.751219 501.751219 0 0 0-199.356511 39.9993 513.783009 513.783009 0 0 0-163.069146 109.566082 513.783009 513.783009 0 0 0-109.566083 163.069147A501.751219 501.751219 0 0 0 0.00896 384a501.751219 501.751219 0 0 0 39.9993 199.356511 513.783009 513.783009 0 0 0 109.566083 163.069147A513.783009 513.783009 0 0 0 312.643489 855.99174 501.751219 501.751219 0 0 0 512 895.99104z m299.770754-397.177049a22.655604 22.655604 0 0 1 0 33.599412l-50.879109 49.215139a24.191577 24.191577 0 0 1-17.343697 7.167874 24.191577 24.191577 0 0 1-17.343696-7.167874L418.561635 284.03374899999994l-146.365438 142.717503a24.191577 24.191577 0 0 1-17.279698 7.231873 24.191577 24.191577 0 0 1-17.407695-7.167874l-50.87911-49.215139a22.655604 22.655604 0 0 1 0-33.599412l207.164375-201.596472 7.42387-7.167875A24.191577 24.191577 0 0 1 418.561635 128.00447999999994a24.191577 24.191577 0 0 1 17.407696 7.231873l375.801423 363.513639z"  horiz-adv-x="1024" />

    
    <glyph glyph-name="popup-check-circle" unicode="&#58957;" d="M443.584 288.06399999999996L362.88 368.89599999999996a38.08 38.08 0 1 1-53.888-53.888L416.64 207.36a37.952 37.952 0 0 1 53.888 0l269.44 269.376a38.08 38.08 0 1 1-53.888 53.888L443.52 288zM512 768a376.32 376.32 0 0 0 149.568-30.016c46.72-19.968 87.488-47.36 122.24-82.112 34.816-34.816 62.208-75.52 82.176-122.304 20.032-46.784 30.016-96.64 30.016-149.568a376.32 376.32 0 0 0-30.016-149.568 385.344 385.344 0 0 0-82.112-122.24 385.344 385.344 0 0 0-122.304-82.176A376.32 376.32 0 0 0 512 0a376.32 376.32 0 0 0-149.568 30.016 385.344 385.344 0 0 0-122.24 82.112 385.344 385.344 0 0 0-82.176 122.304A376.32 376.32 0 0 0 128 384c0 52.928 9.984 102.784 30.016 149.568 19.968 46.72 47.36 87.488 82.112 122.24a385.344 385.344 0 0 0 122.304 82.176A376.32 376.32 0 0 0 512 768z"  horiz-adv-x="1024" />

    
    <glyph glyph-name="check-focus" unicode="&#58959;" d="M436.992 281.6l271.552 271.552a42.688 42.688 0 0 0 60.352-60.352L467.2 191.10400000000004a42.56 42.56 0 0 0-60.352 0L286.144 311.808a42.688 42.688 0 1 0 60.352 60.352L436.992 281.6zM256 768h512a128 128 0 0 0 128-128v-512a128 128 0 0 0-128-128H256a128 128 0 0 0-128 128V640a128 128 0 0 0 128 128z m0-64a64 64 0 0 1-64-64v-512a64 64 0 0 1 64-64h512a64 64 0 0 1 64 64V640a64 64 0 0 1-64 64H256z"  horiz-adv-x="1024" />

    
    <glyph glyph-name="select-focus" unicode="&#58960;" d="M512 768a384 384 0 1 0 0-768A384 384 0 0 0 512 768z m0-64a320 320 0 1 1 0-640A320 320 0 0 1 512 704z m0-128a192 192 0 1 0 0-384 192 192 0 0 0 0 384z"  horiz-adv-x="1024" />

    
    <glyph glyph-name="non-select" unicode="&#58961;" d="M512 704a320 320 0 1 1 0-640A320 320 0 0 1 512 704z m0 64a384 384 0 1 0 0-768A384 384 0 0 0 512 768z"  horiz-adv-x="1024" />

    
    <glyph glyph-name="non-check" unicode="&#58962;" d="M256 704a64 64 0 0 1-64-64v-512a64 64 0 0 1 64-64h512a64 64 0 0 1 64 64V640a64 64 0 0 1-64 64H256z m0 64h512a128 128 0 0 0 128-128v-512a128 128 0 0 0-128-128H256a128 128 0 0 0-128 128V640a128 128 0 0 0 128 128z"  horiz-adv-x="1024" />

    
    <glyph glyph-name="amplification" unicode="&#58963;" d="M362.688 736h298.624A202.688 202.688 0 0 0 864 533.312v-298.624a202.688 202.688 0 0 0-202.688-202.688H362.688A202.688 202.688 0 0 0 160 234.688V533.312A202.688 202.688 0 0 0 362.688 736z m0-64C286.08 672 224 609.92 224 533.312v-298.624c0-76.608 62.08-138.688 138.688-138.688h298.624c76.608 0 138.688 62.08 138.688 138.688V533.312c0 76.608-62.08 138.688-138.688 138.688H362.688zM704 360c0-7.232-4.8-12.032-12.032-12.032H560a12.928 12.928 0 0 1-12.032-11.968v-132.032a12.928 12.928 0 0 0-11.968-11.968h-48c-7.168 0-12.032 4.8-12.032 12.032V336c0 7.232-4.8 12.032-11.968 12.032H331.968c-7.168 0-11.968 4.736-11.968 11.968v48c0 6.016 6.016 12.032 12.032 12.032H464c7.168 0 12.032 4.8 12.032 11.968V564.032c0 5.952 5.952 11.968 11.968 11.968h48c6.016 0 12.032-4.8 12.032-12.032V432c0-7.168 4.736-12.032 11.968-12.032h132.032c5.952 0 11.968-5.952 11.968-11.968v-48z"  horiz-adv-x="1024" />

    
    <glyph glyph-name="narrow" unicode="&#58964;" d="M362.688 736h298.624A202.688 202.688 0 0 0 864 533.312v-298.624a202.688 202.688 0 0 0-202.688-202.688H362.688A202.688 202.688 0 0 0 160 234.688V533.312A202.688 202.688 0 0 0 362.688 736z m0-64C286.08 672 224 609.92 224 533.312v-298.624c0-76.608 62.08-138.688 138.688-138.688h298.624c76.608 0 138.688 62.08 138.688 138.688V533.312c0 76.608-62.08 138.688-138.688 138.688H362.688z m340.096-309.76c-1.6-8.96-11.2-16.64-24.064-16.64h-333.44c-12.8 0-22.464 6.4-24.064 16.64a197.376 197.376 0 0 0 0 43.52c1.6 8.96 11.2 16.64 24.064 16.64h333.44c12.8 0 22.464-7.68 24.064-16.64 1.6-15.36 1.6-29.44 0-43.52z"  horiz-adv-x="1024" />

    
    <glyph glyph-name="table" unicode="&#58965;" d="M176 720h672a48 48 0 0 0 48-48v-576a48 48 0 0 0-48-48H176A48 48 0 0 0 128 96v576a48 48 0 0 0 48 48z m0-192v-432h672V528H176z m48-48h144v-72H224V480z m0-132.032h144v-71.936H224V347.968z m0-131.968h144v-72H224v72zM440 480h144v-72h-144V480z m0-132.032h144v-71.936h-144V347.968z m0-131.968h144v-72h-144v72zM656 480h144v-72h-144V480z m0-132.032h144v-71.936h-144V347.968z m0-131.968h144v-72h-144v72z"  horiz-adv-x="1024" />

    
    <glyph glyph-name="tabulation" unicode="&#58966;" d="M222.848 672h194.304c18.56 0 30.848-12.352 30.848-30.848v-194.304c0-18.56-12.352-30.848-30.848-30.848H222.848C204.288 416 192 428.352 192 446.848V641.152c0 18.56 12.352 30.848 30.848 30.848z m313.152-16h272a24 24 0 1 0 0-48h-272a24 24 0 0 0 0 48z m0-160h272a24 24 0 1 0 0-48h-272a24 24 0 0 0 0 48zM222.848 352h194.304c18.56 0 30.848-12.352 30.848-30.848v-194.304c0-18.56-12.352-30.848-30.848-30.848H222.848c-18.56 0-30.848 12.352-30.848 30.848V321.152c0 18.56 12.352 30.848 30.848 30.848z m313.152-16h272a24 24 0 1 0 0-48h-272a24 24 0 0 0 0 48z m0-160h272a24 24 0 1 0 0-48h-272a24 24 0 1 0 0 48z"  horiz-adv-x="1024" />

    
    <glyph glyph-name="tendency" unicode="&#58967;" d="M132.352 368.448L427.072 629.76a12.8 12.8 0 0 0 17.28-0.256L605.44 476.864a12.8 12.8 0 0 1 18.368 0.768l160.448 180.096-39.872 40.512a12.8 12.8 0 0 0 9.088 21.76H896v-130.88a12.8 12.8 0 0 0-21.824-9.024l-38.72 38.4L624 371.648a12.8 12.8 0 0 0-18.752-0.768L442.56 532.224a12.8 12.8 0 0 1-17.6 0.448L177.6 310.528a12.8 12.8 0 0 0-18.88 1.92L130.56 351.36a12.8 12.8 0 0 0 1.856 17.152z m55.488-128.448h64.64a32 32 0 0 0 32-32v-128a32 32 0 0 0-32-32h-64.64a32 32 0 0 0-32 32v128a32 32 0 0 0 32 32z m193.088 128h64.704a32 32 0 0 0 32-32v-256a32 32 0 0 0-32-32H380.928a32 32 0 0 0-32 32v256a32 32 0 0 0 32 32z m193.088-64H638.72a32 32 0 0 0 32-32v-192a32 32 0 0 0-32-32H574.08a32 32 0 0 0-32 32v192a32 32 0 0 0 32 32z m193.088 128h64.704a32 32 0 0 0 32-32v-320a32 32 0 0 0-32-32h-64.704a32 32 0 0 0-32 32v320a32 32 0 0 0 32 32z"  horiz-adv-x="1024" />

    
    <glyph glyph-name="tree" unicode="&#58968;" d="M384.96 512C366.72 512 352 530.688 352 553.792V662.208c0 23.04 14.72 41.792 32.96 41.792h254.08c18.24 0 32.96-18.688 32.96-41.792v-108.416c0-23.104-14.72-41.792-32.96-41.792h-254.08z m-61.568-288c15.808 0 28.608-15.04 28.608-33.536v-92.928c0-18.56-12.8-33.536-28.608-33.536H188.608c-15.744 0-28.608 14.976-28.608 33.536v92.928c0 18.56 12.8 33.536 28.608 33.536h134.784z m256 0c15.808 0 28.608-15.04 28.608-33.536v-92.928c0-18.56-12.8-33.536-28.608-33.536H444.608c-15.744 0-28.608 14.976-28.608 33.536v92.928c0 18.56 12.8 33.536 28.608 33.536h134.784z m256 0c15.808 0 28.608-15.04 28.608-33.536v-92.928c0-18.56-12.8-33.536-28.608-33.536h-134.784c-15.744 0-28.608 14.976-28.608 33.536v92.928c0 18.56 12.8 33.536 28.608 33.536h134.784zM287.232 360.512c-11.264 0-20.416-9.792-20.416-21.952v-66.56h-22.208V338.56c0 25.408 19.072 46.016 42.624 46.016H496V464h32v-79.424h208.64c23.552 0 42.88-20.608 42.88-46.08V272h-22.4V338.56c0 12.16-9.216 21.952-20.48 21.952H528V272h-32V360.512H287.232z"  horiz-adv-x="1024" />

    
    <glyph glyph-name="number-left" unicode="&#58969;" d="M362.688 736h298.624A202.688 202.688 0 0 0 864 533.312v-298.624a202.688 202.688 0 0 0-202.688-202.688H362.688A202.688 202.688 0 0 0 160 234.688V533.312A202.688 202.688 0 0 0 362.688 736z m0-64C286.08 672 224 609.9200000000001 224 533.312v-298.624c0-76.608 62.08-138.688 138.688-138.688h298.624c76.608 0 138.688 62.08 138.688 138.688V533.312c0 76.608-62.08 138.688-138.688 138.688H362.688z m203.904-467.2L413.184 369.28a21.632 21.632 0 0 0 0 28.864l152.896 163.904c7.68 8.32 20.736 8.32 28.48 0l16.256-17.6a21.632 21.632 0 0 0-0.064-28.928L489.6 386.88c-1.472-1.664-1.472-4.736 0-6.272l120.384-128.768a21.632 21.632 0 0 0 0-28.928l-16.768-18.112a19.84 19.84 0 0 0-26.688 0z"  horiz-adv-x="1024" />

    
    <glyph glyph-name="number-right" unicode="&#58970;" d="M661.312 32H362.688A202.688 202.688 0 0 0 160 234.688V533.312A202.688 202.688 0 0 0 362.688 736h298.624A202.688 202.688 0 0 0 864 533.312v-298.624a202.688 202.688 0 0 0-202.688-202.688z m0 64c76.608 0 138.688 62.08 138.688 138.688V533.312c0 76.608-62.08 138.688-138.688 138.688H362.688C286.08 672 224 609.9200000000001 224 533.312v-298.624c0-76.608 62.08-138.688 138.688-138.688h298.624zM457.408 563.2l153.408-164.48a21.632 21.632 0 0 0 0-28.864l-152.896-163.904a19.264 19.264 0 0 0-28.48 0l-16.256 17.6a21.632 21.632 0 0 0 0.064 28.928l121.088 128.64c1.472 1.664 1.472 4.736 0 6.272L413.952 516.1600000000001a21.632 21.632 0 0 0 0 28.928L430.72 563.2a19.84 19.84 0 0 0 26.688 0z"  horiz-adv-x="1024" />

    
    <glyph glyph-name="form" unicode="&#58971;" d="M608 672h128a64 64 0 0 0 64-64V576a64 64 0 0 0-64-64h-128a64 64 0 0 0-64 64v32a64 64 0 0 0 64 64z m-320-416h128a64 64 0 0 0 64-64v-32a64 64 0 0 0-64-64h-128a64 64 0 0 0-64 64V192a64 64 0 0 0 64 64z m0 416h128a64 64 0 0 0 64-64V384a64 64 0 0 0-64-64h-128a64 64 0 0 0-64 64V608a64 64 0 0 0 64 64z m320-224h128a64 64 0 0 0 64-64v-224a64 64 0 0 0-64-64h-128a64 64 0 0 0-64 64V384a64 64 0 0 0 64 64z"  horiz-adv-x="1024" />

    
    <glyph glyph-name="navbar-clue" unicode="&#58972;" d="M614.656 137.856a289.088 289.088 0 0 0-27.648-9.664c-15.68-3.52-30.912-7.104-46.144-10.368-9.92-2.048-19.84-3.84-29.888-5.312-8.192-1.216-16.448-1.92-24.704-2.368-13.568-0.768-27.136-1.728-40.704-1.472a184.128 184.128 0 0 0-63.232 11.712 102.4 102.4 0 0 0-40.832 27.328 77.44 77.44 0 0 0-18.56 37.12 115.456 115.456 0 0 0 7.68 70.656c6.272 14.016 14.592 26.56 24.64 38.08 14.208 16.256 29.888 30.72 48 42.496 14.528 9.408 29.248 18.56 44.288 27.136a495.872 495.872 0 0 0 71.552 31.808c16.448 6.144 32.064 14.208 46.912 23.808a181.76 181.76 0 0 1 34.432 27.584c12.8 13.568 22.4 28.8 27.392 47.104a63.104 63.104 0 0 1-4.48 44.864 99.776 99.776 0 0 1-23.04 32.448 90.24 90.24 0 0 1-26.624 16.512 115.2 115.2 0 0 1-38.4 8.512c-10.112 0.512-20.288 1.28-30.4 0.64a321.28 321.28 0 0 1-59.776-9.984c-1.28-0.384-15.872-4.928-30.144-9.856a112 112 0 1 0-2.944 45.056c8.128 2.24 15.232 4.416 16.32 4.608 15.232 3.456 30.464 7.04 45.888 9.664 10.496 1.792 21.248 2.368 31.872 3.2 6.528 0.512 13.12 1.088 19.584 0.704 23.232-1.152 46.016-4.672 67.648-14.08 18.816-8.064 34.752-19.84 48-35.072 13.248-15.232 21.952-33.152 28.032-52.416 3.84-12.288 4.288-24.576 3.2-37.312-1.536-16.896-6.528-32.64-14.208-47.552a162.048 162.048 0 0 0-22.272-32.064 220.224 220.224 0 0 0-56.384-44.992c-17.152-9.984-35.2-18.176-53.952-25.024a524.224 524.224 0 0 1-31.424-13.12 417.792 417.792 0 0 1-62.656-34.688 219.776 219.776 0 0 1-42.24-36.48c-11.2-12.48-20.288-26.432-24.128-43.2a59.264 59.264 0 0 1 3.52-40.32 43.52 43.52 0 0 1 19.456-18.304c12.288-6.656 25.408-10.56 39.296-11.84 9.28-0.896 18.56-2.368 27.84-2.176 13.376 0.32 26.688 1.664 40.064 2.944 26.88 2.56 52.992 9.152 79.104 15.488 2.56 0.64 18.752 5.952 33.536 11.52a112 112 0 1 0 6.528-43.328z"  horiz-adv-x="1024" />

    
    <glyph glyph-name="navbar-company" unicode="&#58973;" d="M876.8 137.856c9.6 0 19.2-9.216 19.2-18.432v-68.992c0-9.216-9.6-18.432-19.2-18.432H147.2c-9.6 0-19.2 9.216-19.2 18.432v68.992c0 9.216 9.6 18.432 19.2 18.432h52.8V685.376c0 27.648 24 50.624 52.8 50.624h360c28.8 0 33.6-23.04 33.6-50.56v-105.856h144c19.2 0 33.6-13.824 33.6-32.256v-409.472h52.8z m-116.8 97.344V268.79999999999995c0 9.6-9.6 19.2-19.2 19.2h-33.6c-9.6 0-19.2-9.6-19.2-19.2v-33.6c0-9.6 9.6-19.2 19.2-19.2h33.6c9.6 0 19.2 9.6 19.2 19.2z m0 128V396.8c0 9.6-9.6 19.2-19.2 19.2h-33.6c-9.6 0-19.2-9.6-19.2-19.2v-33.6c0-9.6 9.6-19.2 19.2-19.2h33.6c9.6 0 19.2 9.6 19.2 19.2zM560 589.8879999999999v52.224a32.128 32.128 0 0 1-29.888 29.888h-52.224A32.128 32.128 0 0 1 448 642.112v-52.224c0-14.976 14.912-29.888 29.888-29.888h52.224a32.128 32.128 0 0 1 29.888 29.888z m-176 0v52.224a32.128 32.128 0 0 1-29.888 29.888h-52.224a32.128 32.128 0 0 1-29.888-29.888v-52.224c0-14.976 14.912-29.888 29.888-29.888h52.224A32.128 32.128 0 0 1 384 589.8879999999999z m176-192v52.224a32.128 32.128 0 0 1-29.888 29.888h-52.224A32.128 32.128 0 0 1 448 450.112v-52.224c0-14.976 14.912-29.888 29.888-29.888h52.224a32.128 32.128 0 0 1 29.888 29.888z m-176 0v52.224a32.128 32.128 0 0 1-29.888 29.888h-52.224a32.128 32.128 0 0 1-29.888-29.888v-52.224c0-14.976 14.912-29.888 29.888-29.888h52.224A32.128 32.128 0 0 1 384 397.888z m176-192v52.224a32.128 32.128 0 0 1-29.888 29.888h-52.224A32.128 32.128 0 0 1 448 258.11199999999997v-52.224c0-14.976 14.912-29.888 29.888-29.888h52.224a32.128 32.128 0 0 1 29.888 29.888z m-176 0v52.224a32.128 32.128 0 0 1-29.888 29.888h-52.224a32.128 32.128 0 0 1-29.888-29.888v-52.224c0-14.976 14.912-29.888 29.888-29.888h52.224A32.128 32.128 0 0 1 384 205.88800000000003z"  horiz-adv-x="1024" />

    
    <glyph glyph-name="navbar-graphic" unicode="&#58974;" d="M484.352 417.28l-54.656 118.144a104.512 104.512 0 0 1 6.4 140.48 102.656 102.656 0 0 1-138.368 18.368 104.448 104.448 0 0 1-29.952-137.344 102.784 102.784 0 0 1 133.312-41.728l59.84-129.216-73.6-158.912a86.016 86.016 0 0 1-96.32-63.744 86.784 86.784 0 0 1 53.248-103.04 85.76 85.76 0 0 1 107.136 43.008 87.04 87.04 0 0 1-31.744 111.68l77.056 166.272 135.488-13.44v-1.088c0-34.688 25.472-64 59.584-68.672a68.8 68.8 0 0 1 75.52 50.304 69.44 69.44 0 0 1-39.424 82.112 68.48 68.48 0 0 1-86.016-28.352l-157.504 15.232z"  horiz-adv-x="1024" />

    
    <glyph glyph-name="navbar-business" unicode="&#58975;" d="M352.384 556.992a201.6 201.6 0 0 0 27.2 27.136l-49.088 46.592a20.48 20.48 0 0 1-27.904 0c-7.744-7.296-7.744-19.136 0-26.496l49.792-47.232z m159.552 74.944h0.512c6.464 0 12.864-0.448 19.2-1.024V694.4A19.2 19.2 0 0 1 512 713.152a19.2 19.2 0 0 1-19.776-18.752v-63.488c6.336 0.64 12.736 1.024 19.2 1.024H512z m159.68-74.88l49.792 47.296c7.744 7.296 7.744 19.2 0 26.496a20.48 20.48 0 0 1-27.904 0l-49.088-46.592c9.856-8.32 18.88-17.408 27.2-27.2zM303.808 424.128c0 8.96 0.832 17.92 1.92 26.624H235.52c-10.88 0-19.776-8.32-19.776-18.688a19.2 19.2 0 0 1 19.776-18.752H304a214.016 214.016 0 0 0-0.256 10.816z m484.608 26.624h-70.208c1.152-8.768 1.92-17.6 1.92-26.624 0-3.776-0.128-7.296-0.192-10.88h68.544a19.2 19.2 0 0 1 19.776 18.816 19.52 19.52 0 0 1-19.84 18.688z m-106.496-153.6a289.728 289.728 0 0 0-24.704-29.568l36.096-34.368a20.48 20.48 0 0 1 27.968 0c7.68 7.36 7.68 19.2 0 26.496l-39.36 37.44z m-379.456-37.44c-7.68-7.296-7.68-19.136 0-26.496a20.48 20.48 0 0 1 27.968 0l36.16 34.368a301.76 301.76 0 0 0-24.704 29.568l-39.424-37.44z m390.272 164.416c0 38.784-13.632 74.752-36.672 103.552a180.672 180.672 0 0 1-79.232 56.704l0.192 0.896-13.504 3.776a195.968 195.968 0 0 1-32.512 6.016L529.408 595.2H529.28a181.12 181.12 0 0 1-17.024 0.832H511.36c-5.824 0-11.52-0.32-16.96-0.832h-0.128l-1.6-0.128a196.672 196.672 0 0 1-32.32-6.016l-13.12-3.648 0.192-0.832a181.696 181.696 0 0 1-79.68-56.896 165.632 165.632 0 0 1-36.48-103.552c0-27.904 4.992-50.88 12.928-69.76 11.84-28.416 29.952-47.616 44.48-62.208 7.296-7.296 13.696-13.504 18.048-18.752a30.08 30.08 0 0 0 7.168-12.8c3.2-15.872 3.52-35.904 3.52-41.024v-1.472c0-23.04 19.648-41.6 43.84-41.6H562.56c24.256 0 43.84 18.624 43.84 41.6v1.472c0 5.056 0.32 25.152 3.456 41.088a22.4 22.4 0 0 0 3.456 7.872c3.456 5.376 10.048 12.032 18.176 20.16 12.16 12.16 27.648 27.456 39.872 49.088 12.48 21.632 21.312 49.728 21.312 86.336z m-130.496-259.136H461.696a18.432 18.432 0 0 1-18.88-17.92c0-9.792 8.448-17.856 18.88-17.856h100.544a18.432 18.432 0 0 1 18.88 17.92 18.368 18.368 0 0 1-18.88 17.92z m0-45.12H461.696a18.432 18.432 0 0 1-18.88-17.92c0-9.856 8.448-17.92 18.88-17.92h100.544a18.432 18.432 0 0 1 18.88 17.92 18.432 18.432 0 0 1-18.88 17.92z m-41.536-45.504h-51.776v-1.6c0-9.92 16-17.92 30.72-17.92h24.512c14.848 0 30.784 8 30.784 17.92l-0.064 1.6h-34.176z"  horiz-adv-x="1024" />

    
    <glyph glyph-name="navbar-event" unicode="&#58976;" d="M784.64 457.152H239.36c-10.624 0-19.904-8.512-19.904-18.304v-298.688c0-26.816 23.936-48.704 53.12-48.704h478.784c29.248 0 53.184 21.888 53.184 48.704V438.848c0 9.792-9.28 18.304-19.904 18.304z m-365.76-273.536c0-8-5.312-13.312-13.248-13.312h-53.248c-7.936 0-13.248 5.312-13.248 13.312v53.056c0 7.936 5.312 13.248 13.248 13.248h53.248c7.936 0 13.248-5.312 13.248-13.248v-53.12z m0 121.856c0-7.936-5.312-13.248-13.248-13.248h-53.248c-7.936 0-13.248 5.312-13.248 13.248v53.12c0 7.936 5.312 13.248 13.248 13.248h53.248c7.936 0 13.248-5.312 13.248-13.312v-53.056z m132.992-121.856c0-8-5.312-13.312-13.248-13.312h-53.248c-7.936 0-13.248 5.312-13.248 13.312v53.056c0 7.936 5.312 13.248 13.248 13.248h53.248c7.936 0 13.248-5.312 13.248-13.248v-53.12z m0 121.856c0-7.936-5.312-13.248-13.248-13.248h-53.248c-7.936 0-13.248 5.312-13.248 13.248v53.12c0 7.936 5.312 13.248 13.248 13.248h53.248c7.936 0 13.248-5.312 13.248-13.312v-53.056z m132.992-121.856c0-8-5.312-13.312-13.248-13.312h-53.248c-7.936 0-13.248 5.312-13.248 13.312v53.056c0 7.936 5.312 13.248 13.248 13.248h53.248c7.936 0 13.248-5.312 13.248-13.248v-53.12z m0 121.856c0-7.936-5.312-13.248-13.248-13.248h-53.248c-7.936 0-13.248 5.312-13.248 13.248v53.12c0 7.936 5.312 13.248 13.248 13.248h53.248c7.936 0 13.248-5.312 13.248-13.312v-53.056z m66.56 310.144H684.8V640c0 19.52-17.28 36.544-39.872 36.544-21.312 0-39.872-15.808-39.872-36.544v-24.384h-186.24V640c0 19.52-17.28 36.544-39.872 36.544-21.248 0-39.872-15.808-39.872-36.544v-24.384h-66.56c-29.184 0-53.12-21.952-53.12-48.768v-30.464c0-9.728 9.28-18.304 19.904-18.304h545.28c10.624 0 19.904 8.576 19.904 18.304v30.464c0 26.88-23.936 48.768-53.12 48.768z"  horiz-adv-x="1024" />

    
    <glyph glyph-name="navbar-product" unicode="&#58977;" d="M236.16 652.096h192a32 32 0 0 0 32-32v-192a32 32 0 0 0-32-32h-192a32 32 0 0 0-32 32v192a32 32 0 0 0 32 32z m0-320h192a32 32 0 0 0 32-32v-192a32 32 0 0 0-32-32h-192a32 32 0 0 0-32 32v192a32 32 0 0 0 32 32z m320 0h192a32 32 0 0 0 32-32v-192a32 32 0 0 0-32-32h-192a32 32 0 0 0-32 32v192a32 32 0 0 0 32 32z m118.656 350.4l135.68-135.808a32 32 0 0 0 0-45.248l-135.68-135.744a32 32 0 0 0-45.312 0l-135.68 135.744a32 32 0 0 0 0 45.248l135.68 135.808a32 32 0 0 0 45.312 0z"  horiz-adv-x="1024" />

    
    <glyph glyph-name="navbar-performance" unicode="&#58978;" d="M476.544 603.712v-256.128h257.152a256.64 256.64 0 0 0-257.152-256.128A256.64 256.64 0 0 0 219.52 347.52a256.64 256.64 0 0 0 257.088 256.128zM512 676.544c161.536 0 292.544-130.496 292.544-291.392 0 1.664-292.544 0-292.544 0V676.48z"  horiz-adv-x="1024" />

    
    <glyph glyph-name="navbar-risk" unicode="&#58979;" d="M219.456 647.168c0 7.616 6.016 14.976 13.76 16.448 0 0 240.384 47.68 278.592 47.68 38.272 0 279.488-47.744 279.488-47.744a17.28 17.28 0 0 0 13.44-16.384v-248.96c0-91.392-61.568-207.68-138.432-258.496 0 0-113.92-83.392-152.768-83.392s-155.392 84.16-155.392 84.16C281.6 191.36 219.52 306.75199999999995 219.52 398.272V647.168z m271.936-113.6l-62.08-159.808c-2.24-5.632 0.832-10.496 7.104-10.496h59.648c6.144 0 10.24-4.992 8.96-11.136l-19.392-93.248c-5.056-24.448 2.624-27.84 17.152-7.616L621.76 417.28c3.648 5.056 1.472 9.216-4.8 9.344l-74.368 1.92c-6.4 0.128-9.344 4.864-6.848 10.496l41.728 94.912c2.496 5.568-0.512 10.24-6.784 10.24h-63.872a17.92 17.92 0 0 1-15.424-10.496z"  horiz-adv-x="1024" />

    
    <glyph glyph-name="navbar-tips" unicode="&#58980;" d="M708.224 335.616a44.672 44.672 0 0 1-12.736 31.872L447.552 615.424a115.84 115.84 0 0 1-35.2 22.592 103.616 103.616 0 0 1-40.512 9.28H227.328a42.816 42.816 0 0 1-31.168-13.312 43.008 43.008 0 0 1-13.312-31.296v-144.256c0-12.16 2.88-26.048 9.28-40.512 6.336-15.104 13.248-26.688 22.528-35.392l247.936-248.512a42.24 42.24 0 0 1 31.232-12.8c12.16 0 22.528 4.096 31.744 12.8l169.92 170.304a44.8 44.8 0 0 1 12.736 31.36zM325.056 504.192a42.24 42.24 0 0 0-31.232-12.736 42.24 42.24 0 0 0-31.232 12.8 42.432 42.432 0 0 0-12.672 31.232c0 12.16 4.032 22.592 12.672 31.296a42.24 42.24 0 0 0 31.232 12.8 42.24 42.24 0 0 0 31.232-12.8 42.432 42.432 0 0 0 12.672-31.296 40.32 40.32 0 0 0-12.672-31.296z m503.36-136.704L580.48 615.424a115.84 115.84 0 0 1-35.2 22.592 103.616 103.616 0 0 1-40.512 9.28H426.752c12.16 0 25.984-2.88 40.448-9.28 15.04-6.4 26.624-13.312 35.264-22.592l247.936-247.936a44.672 44.672 0 0 0 12.736-31.872c0-12.16-4.032-22.592-12.736-31.296l-162.432-163.328c6.976-7.04 13.312-12.16 18.56-15.68 5.12-3.456 12.16-4.608 20.224-4.608 12.16 0 22.528 4.032 31.744 12.736l169.92 170.88a42.432 42.432 0 0 1 12.736 31.36 44.672 44.672 0 0 1-12.736 31.808z"  horiz-adv-x="1024" />

    
    <glyph glyph-name="navbar-dynamic" unicode="&#58981;" d="M531.648 432.448l0.96 0.576a43.072 43.072 0 0 0-2.304 5.824c0.448-2.112 0.96-4.224 1.344-6.4zM640.64 328.96000000000004V328.96000000000004s-0.576 0-0.64 0.192c0.128-0.128 0.448-0.128 0.448-0.128l0.192-0.128z m5.76-1.6c-1.472 0.576-4.864-0.448-6.144 1.856-0.832-6.784 0.384-9.344 6.144-1.92zM512 731.456a347.392 347.392 0 1 1 0-694.848A347.392 347.392 0 0 1 512 731.456z m200.32-133.696c-11.392-0.32-19.264-0.384-28.416-7.04-3.648-2.752-6.144-6.336-10.88-7.68-4.16-1.28-8.64-0.192-12.8-1.728-14.976-5.376-12.608-39.68-32.32-34.496-9.28 2.432-15.808 14.144-20.48 21.76-4.096 6.72-11.52 12.288-6.528 20.672-2.304-0.64-4.736 0.128-7.04-0.32 3.2 7.36 13.824 6.72 15.552 10.496 4.416 9.536-12.096 10.496-16.768 11.84 5.632 6.4 8.512-2.176 14.08-0.704 5.312 1.408-2.88 8.896-6.08 9.728-1.152 0.32-19.904-5.568-9.024 4.864l-40.32 27.392c-2.24-10.176 17.92-16 24.448-19.52-0.96-4.224-7.104-10.304-11.776-8.512-4.48 1.664-2.624 9.472-9.28 8.704-4.736-11.84 10.048-8.32 11.392-15.616 1.6-8.192-5.568-4.736-8.32-4.608-0.64 0-5.76 5.76-6.08 1.408-0.32-5.12 8.192-3.072 8.768-8.256-9.92-0.384-14.976 3.392-23.04 9.152-9.408 6.656-14.272 6.08-25.792 6.08 3.456 1.536 8.192 2.624 11.136 5.12a53.76 53.76 0 0 1 8.32 9.344c1.856 6.336 0 5.824-5.76 9.984-4.992 3.712-11.136 10.24-17.28 11.584-22.08 4.736-6.784-21.312-23.552-24.96h0.832-0.96 0.128c-3.904 0.192-11.2 1.216-13.696-1.024-1.792-1.536-1.92-7.68-3.904-9.92-3.52-4.032-8.768-4.8-12.992-7.68-4.096-2.88-13.12-10.112-15.488-14.976-8.896-18.112 19.968-23.68 30.912-28.992 4.928-2.432 19.392-5.696 22.08-9.664 3.584-5.376-3.136-10.432 4.416-14.208 2.368-1.152 7.36-1.408 9.408 1.088 3.392 4.032-1.344 4.928-2.176 9.6-1.536 9.024 1.024 5.44 5.248 8.832 8.704 6.784 6.72 7.232 3.648 18.048-1.472 5.12-6.912 19.2-2.112 22.912 6.208 4.864 19.584-2.56 24.32-3.2 5.632-0.768 8.768-9.024 11.84-12.416 1.984-2.24 5.632-7.04 9.152-6.464 5.632 0.832 3.2 6.016 6.528 8.448 8.704 6.4 11.008-2.304 14.464-11.072a37.76 37.76 0 0 1 12.16-16.576c2.688-2.432 14.528-11.264 13.44-16.64-0.768-3.648-14.272-9.152-17.92-10.368-13.184-4.48-38.016 7.296-40.64-15.104 5.12 2.048 19.712 14.72 24.064 8.768 1.984-2.752-1.6-6.72-0.704-9.472 2.496-8.128 8.32-5.312 14.528-3.968a10.88 10.88 0 0 0-1.28-0.768c8.384 4.608 7.488 3.648 11.392 11.2 1.28 2.432 3.2 8.32 4.928 10.112 6.144 6.016 7.04 1.92 10.88-2.752 0.96-1.28 10.368-15.68 7.04-14.976-10.944 2.368-21.44 2.048-30.464-4.352-5.248-3.648-10.176-8.576-16.384-11.072-1.536-0.576-12.544-1.664-11.264 0.32 1.92 2.944 8.512 4.864 11.072 8.064-7.168 3.2-13.184-3.84-18.816-7.872-6.016-3.072-7.36-8.704-12.48-13.632-2.24-2.176-6.4-2.56-8.64-5.376-2.112-2.752-2.368-7.04-4.352-9.664-1.408-1.856-5.056-0.704-6.528-3.52-1.92-3.584 1.792-6.912 0.96-9.536-1.472-4.672-9.856-8.704-13.12-12.096a58.88 58.88 0 0 1 1.28 1.344c-3.2-3.584-7.296-6.272-9.856-10.496 1.152-5.888 4.864-20.032 3.84-23.296-3.392-10.688-9.92 5.824-12.544 10.112-9.152 14.656-27.328 4.864-39.808 3.648-15.872-1.6-31.488-23.68-21.696-41.536a18.752 18.752 0 0 1 21.76-9.92c8.064 1.792 10.496 13.888 18.112 14.08 14.08 0.384 0.32-14.656-0.896-20.16-1.088-5.12 1.728-5.568 6.72-6.848 3.584-0.96 8.768 1.664 11.904-0.576 1.984-1.408 1.92-9.088 4.672-6.656-5.376-4.736-4.16-16 1.344-20.16 6.144-4.48 13.376-0.32 19.776-2.048 12.096-3.328 6.336 0.96 16.96 7.808 7.168 4.608 8.32-0.832 13.248-0.896 3.328 0 5.44 5.12 11.008 3.648 4.544-1.28 6.4-4.992 11.776-5.824 2.24-0.384 4.48 0.896 6.656 0.64 10.048-1.216 17.728-8.064 25.6-14.208 6.528-5.12 10.88-4.096 18.496-6.4 5.568-1.728 15.808-10.304 15.36-17.92-0.128-1.28-4.992-8.064-5.824-11.136 1.408-1.024 11.328 1.28 14.208 1.536-0.96-1.216-7.68-6.272-7.68-3.584 0-1.344 4.736-4.16 5.888-5.12 3.52 12.224 9.344 4.416 16.256 1.408 5.952-2.56 13.184-2.752 19.52-4.352 5.376-1.344 17.152-5.184 21.12-9.856 4.736-5.632 1.472-14.72-2.048-20.352-4.672-7.36-11.584-10.176-14.464-18.816-2.304-6.784-0.64-13.696-1.92-21.312-1.728-10.24-3.2-6.656-9.344-12.928-5.184-5.248-0.064-4.352-7.168-7.68-7.104-3.392-13.44-2.368-18.304-10.752a14.528 14.528 0 0 1 0.512 1.6c-2.112-3.072-3.2-9.472-4.16-11.52-2.496-5.376-5.888-8.704-9.792-13.12-1.536-1.728-15.36-21.952-16.192-20.288-1.024 2.112-11.968-2.112-12.48 0.896 0.448-2.56-0.064-1.728 2.624-3.2-2.56-16.576-9.088-19.072-24.32-19.2 1.28-8-5.568-6.4-8.768-10.688-1.856-2.56-2.752-9.6-4.032-12.8-0.768-2.048-6.784-10.24-6.784-11.84 0-1.472 2.048-3.648 3.904-5.76-10.752-2.24-21.76-3.84-32.896-4.8 2.112 2.816 2.56 5.248-4.032 5.632 1.792 5.12 5.952 8.064 7.68 13.056 0.896 2.368 0.192 3.328 0.896 5.632 2.432 8.064 1.344 5.056 0 11.328-3.2 14.72 1.152 18.688 4.864 32.128 3.84 13.824 3.52 31.744 6.016 46.592 1.152 7.168 3.072 21.952 0.768 28.672-2.624 7.616-14.08 13.568-19.392 18.688-7.424 7.232-11.392 15.04-16.896 24-2.816 4.544-6.016 8.96-8.192 13.952-4.736 10.56 0 4.288 0.768 10.496 0.768 6.08-0.64 11.456 1.536 17.792 2.56 7.04 8.704 11.328 10.752 18.368 1.792 6.336 0.448 14.208-5.632 16.32-3.328 1.152-7.04-1.536-10.432-0.96a34.624 34.624 0 0 0-13.76 7.552c-5.184 4.224-7.104 11.072-12.608 15.04-4.608 3.328-7.936 1.28-12.8 2.88-5.12 1.6-8.32 8.384-12.48 10.496-6.208 3.2-9.728-1.344-16.32-0.448-5.568 0.768-14.08 7.424-19.328 9.92-10.624 5.056-17.088 10.624-21.312 22.144-3.648 9.856-8.96 14.464-15.168 22.656-6.336 8.32-8.32 15.424-18.048 17.664-1.152 0.256 2.368-8.768 2.752-9.472 3.456-6.848 8.704-13.184 12.928-19.584 6.208-9.408 3.52-11.2-2.752-2.048-7.168 10.432-15.552 20.8-21.76 31.872-2.368 4.16-1.92 6.848-5.824 10.88-3.776 3.84-8.704 5.632-12.48 9.28-13.632 13.12-16.128 30.592-14.528 49.28 0.512 6.016 2.56 10.88 1.664 16.768a23.68 23.68 0 0 1-6.784 12.416l-3.968 6.656c-3.136 5.504-5.504 10.88-10.432 15.36a251.84 251.84 0 0 1-16.96 13.76 295.424 295.424 0 0 0 117.568 93.888 19.072 19.072 0 0 1 2.88-7.36c3.84-6.016 7.424-5.568 14.848-7.232-0.768-9.216-10.88-9.28-17.728-8.32-8.128 1.28-16.704 4.16-23.744-3.52 3.84-2.496 14.592-12.224 13.184-2.048 7.808 0.448 15.36 0.64 22.976-0.32 3.072-0.384 13.312-4.096 16.064-2.432 1.216 0.704 2.432 6.848 3.648 8.768-2.176 0-4.48 1.152-6.656 0.96 5.056 6.912 10.112 1.472 16.512-1.728-7.04-4.608-2.88-15.616 4.032-6.656 5.76 7.36-1.344 12.736-8.576 17.024 7.296 9.728 11.776 10.56 18.624-0.384 1.152 6.784 6.272 4.032 11.584 3.52v1.728c-2.368-0.064-4.864 1.408-7.168 1.152 5.44 9.28 1.92 11.392 9.728 14.4 6.208 2.432 23.936 0.192 26.112 6.4-12.416-2.56-27.328-3.2-38.528-9.216-4.864-2.56-10.56-10.752-15.36-5.44-4.992 5.44 3.52 14.208 7.808 16.896h-1.024a273.728 273.728 0 0 0 100.48 3.904c-4.48-2.56-1.216-4.224-4.48-6.784-6.272-4.928-17.344-9.024-24.768-12.16 9.408 0.064 32.32-9.408 36.736 4.736l-9.152 1.472c5.696 4.032 12.032 7.296 18.688 9.728 60.224-12.8 113.792-45.376 154.56-91.136h-0.896z m74.752-133.248c0.896 0.96 2.88 1.28 3.712 2.048 1.792 1.728 1.344 2.88 3.52 4.288 2.304 1.536 5.44 1.92 8.064 3.2a7.104 7.104 0 0 1 2.048 1.408c7.744-11.392 13.952-23.168 18.432-35.2-0.128-0.128-0.192-0.256-0.384-0.32a69.76 69.76 0 0 0-9.984-1.088c-5.376-0.064-9.28 1.792-13.12 3.52a55.04 55.04 0 0 0-11.264 6.464c-2.944 2.432-1.152 4.992-0.896 7.808 0.128 2.368-2.048 5.76-0.128 7.872z m15.36-197.312a105.792 105.792 0 0 0-13.888 21.952c-3.648 8.32-1.408 16.896-1.152 26.432 0.192 8-2.496 19.392-0.128 26.624 1.088 3.328 3.52 4.416 4.544 7.104 2.176 5.76 1.728 9.6 4.352 14.528 2.88 5.248 6.72 6.592 9.92 10.688 3.328 4.352 3.2 7.808 5.312 13.376a49.92 49.92 0 0 0 8.64 14.4A516.992 516.992 0 0 0 814.528 256c-4.672 1.728-8.448 6.528-12.16 11.2z"  horiz-adv-x="1024" />

    
    <glyph glyph-name="navbar-custom" unicode="&#58982;" d="M875.136 139.13599999999997a58.56 58.56 0 0 0-7.04-21.376c-2.304-3.072-8.64-6.208-19.072-9.28a402.496 402.496 0 0 0-38.784-8.96c-15.36-2.944-32.512-5.504-51.456-7.68-1.472-0.192-2.88-0.32-4.352-0.384 0 1.216 0.32 2.24 0.32 3.456 0 13.248-0.768 26.56-2.112 39.552a209.728 209.728 0 0 1-7.936 40.704 131.84 131.84 0 0 1-48 66.496 212.8 212.8 0 0 1-50.432 26.624 487.872 487.872 0 0 1-45.056 14.464 260.288 260.288 0 0 0-20.224 6.272c8.832 8.576 16.448 19.008 22.72 30.912 4.096 7.936 7.872 16.256 11.136 24.64l0.256 0.64c9.728 8.64 18.432 20.032 25.344 33.408 7.36 14.08 11.84 29.952 13.696 48.576a122.496 122.496 0 0 1-12.224 71.552 518.528 518.528 0 0 1-3.328 38.4 386.56 386.56 0 0 1-14.208 61.952 214.016 214.016 0 0 1-38.72 71.68 168.32 168.32 0 0 1-34.816 32.256A234.88 234.88 0 0 1 512 725.248c7.872 5.12 16 9.792 24.128 13.12 10.88 4.48 21.888 7.424 32.768 8.96a226.56 226.56 0 0 0 31.808 2.368c12.928 0 25.792-1.408 38.4-4.288 12.672-2.944 24.576-6.72 35.776-11.712 11.2-4.928 20.992-10.432 29.824-16.704 8.704-6.208 15.424-12.48 20.416-18.688 11.584-14.272 20.096-29.952 25.344-47.104 5.44-17.088 9.216-33.536 11.392-49.024 2.304-17.728 3.328-35.84 3.328-54.08 3.136-2.304 5.632-5.12 7.36-8.704 1.792-3.072 3.2-7.104 4.352-12.096 1.152-4.8 1.28-10.816 0.32-17.92a62.976 62.976 0 0 0-5.696-22.4 42.816 42.816 0 0 0-9.728-13.056 32 32 0 0 0-12.8-7.296c-2.112-7.552-4.416-14.72-6.592-21.376-2.24-5.76-4.736-11.52-7.68-17.024a42.816 42.816 0 0 0-9.728-12.992 452.48 452.48 0 0 1-20.736-17.088c-5.248-4.608-8.896-12.544-10.624-23.68-1.344-6.656-1.792-13.44-1.344-20.352a54.656 54.656 0 0 1 5.696-20.672 63.808 63.808 0 0 1 15.36-19.712c7.04-6.208 16.64-11.776 29.184-16.768 11.2-4.416 23.296-8.448 36.48-12.032 13.12-3.648 25.984-7.68 38.4-12.288 12.544-4.672 23.552-10.432 33.152-17.344a56.32 56.32 0 0 0 20.48-28.416c2.24-7.104 3.84-15.872 4.992-26.304a222.208 222.208 0 0 0-0.96-61.44zM567.616 579.8399999999999c5.248-16.896 9.088-33.024 11.264-48.32 2.304-17.472 3.328-35.2 3.328-53.248a23.68 23.68 0 0 0 7.424-8.512 44.416 44.416 0 0 0 4.672-29.568 60.544 60.544 0 0 0-5.76-22.08 42.24 42.24 0 0 0-9.728-12.8 33.28 33.28 0 0 0-12.672-7.232c-2.304-7.424-4.48-14.4-6.72-21.056a152.32 152.32 0 0 0-7.68-16.768 42.24 42.24 0 0 0-9.792-12.8 451.84 451.84 0 0 1-20.736-16.768c-5.44-4.544-8.96-12.352-10.688-23.36-1.344-6.528-1.792-13.184-1.344-20.032a53.568 53.568 0 0 1 5.696-20.288 62.976 62.976 0 0 1 15.424-19.456c7.04-6.08 16.64-11.52 29.184-16.448 11.2-4.352 23.36-8.32 36.544-11.904 13.184-3.52 26.048-7.488 38.528-12.096 12.544-4.544 23.552-10.24 33.216-17.088 9.6-6.784 16.384-16 20.48-27.904 2.112-7.04 3.84-15.68 4.928-25.92 1.152-10.24 1.664-20.736 1.664-31.232 0-10.432-0.832-20.288-2.368-29.568a55.104 55.104 0 0 0-7.04-21.056c-2.304-3.008-8.64-6.08-19.136-9.088a404.864 404.864 0 0 0-38.912-8.896c-15.36-2.816-32.64-5.376-51.584-7.488-19.008-2.24-38.08-4.096-57.28-5.568-19.2-1.536-37.76-2.752-55.36-3.712-17.664-0.896-32.896-1.28-45.888-1.28-12.992 0-28.032 0.384-45.248 1.28a1791.104 1791.104 0 0 0-107.84 8.96c-18.048 1.92-34.496 4.096-49.216 6.208a623.296 623.296 0 0 0-37.568 6.592c-10.24 2.24-16.704 4.352-19.392 6.592-4.48 3.456-7.936 14.272-10.432 32.256-2.496 17.92-1.408 41.152 3.008 69.632 2.304 16.128 8.832 28.544 19.84 37.12 10.88 8.512 23.68 15.36 38.208 20.288 14.528 5.12 29.568 9.6 45.248 13.44 15.68 3.904 29.44 9.6 41.536 17.024 9.472 5.76 16.512 11.2 21.504 16.512a58.56 58.56 0 0 1 10.752 15.744 42.88 42.88 0 0 1 3.328 16.448c0 5.696-0.192 11.968-0.64 19.008a36.352 36.352 0 0 1-10.624 24 344.512 344.512 0 0 1-20.8 18.048 38.4 38.4 0 0 0-9.344 12.8 200.96 200.96 0 0 0-7.36 16.768 523.712 523.712 0 0 0-6.72 21.12 33.088 33.088 0 0 0-9.344 4.48 51.072 51.072 0 0 0-16.704 26.304 44.48 44.48 0 0 0-3.072 20.416 54.336 54.336 0 0 0 3.776 15.744 42.88 42.88 0 0 0 8.704 13.824A309.44 309.44 0 0 0 271.36 574.0799999999999c4.672 16.128 11.712 30.72 21.056 43.264 8.512 12.288 17.92 22.272 28.416 29.888a140.48 140.48 0 0 0 64.96 26.88c10.944 1.6 21.632 2.368 31.936 2.368 12.928 0 25.792-1.408 38.464-4.224 12.672-2.88 24.704-6.592 35.84-11.52 11.2-4.864 21.12-10.24 29.888-16.448 8.704-6.08 15.488-12.288 20.48-18.368 11.264-13.952 19.84-29.44 25.216-46.144z"  horiz-adv-x="1024" />

    
    <glyph glyph-name="homepage-setting" unicode="&#58983;" d="M404.352 186.49599999999998c-16-16.32-32-32.768-48.128-48.896-16.96-16.896-33.088-17.024-49.856-0.448-14.272 14.08-28.48 28.096-42.368 42.432-14.976 15.36-14.912 31.808 0.192 47.168 16.64 16.896 33.6 33.408 50.048 49.728-5.312 13.312-9.728 25.856-15.36 37.76-1.472 2.88-7.04 5.184-10.816 5.312-19.52 0.512-39.104 0.128-58.688 0.256C203.008 319.87199999999996 192 330.75199999999995 192 356.736v57.472c0.128 21.504 11.392 33.408 32.896 33.92 20.8 0.448 41.6 0.384 62.464-0.064 7.488-0.192 10.88 2.24 13.248 9.6 3.52 10.944 8.704 21.44 13.76 33.536-15.552 15.488-31.808 31.552-47.936 47.744-17.984 18.048-18.112 33.664-0.32 51.648 13.76 13.888 27.52 27.84 41.536 41.472 15.232 14.848 31.808 14.784 47.168-0.256 16.832-16.64 33.408-33.664 49.728-50.112 12.992 5.248 25.088 9.472 36.544 15.168 3.264 1.6 6.336 7.232 6.4 11.072 0.64 19.968 0.256 40 0.384 59.968 0.128 24.768 11.328 35.968 35.712 36.032h58.688c21.568-0.064 33.408-11.328 33.792-32.832 0.384-20.864 0.384-41.664 0-62.464-0.192-7.488 2.176-11.008 9.536-13.312 11.008-3.456 21.504-8.64 33.664-13.696 15.488 15.552 31.488 31.808 47.68 48 18.112 17.984 33.664 18.112 51.584 0.32 13.952-13.76 27.904-27.52 41.536-41.6 14.912-15.36 14.912-31.808-0.256-47.104-16.64-16.832-33.728-33.28-50.24-49.472 5.376-13.248 9.6-25.408 15.36-36.8 1.536-3.264 7.168-6.336 11.008-6.4 19.584-0.704 39.168-0.256 58.752-0.384 26.496-0.192 37.248-10.88 37.312-36.992v-57.472c-0.128-21.504-11.392-33.408-32.896-33.856-20.8-0.448-41.6-0.384-62.464 0-7.488 0.192-10.944-2.176-13.248-9.472-3.52-11.072-8.704-21.568-13.76-33.728l48-47.616c17.92-18.048 18.048-33.728 0.32-51.648-13.76-13.888-27.52-27.84-41.6-41.472-15.36-15.04-31.68-15.04-47.104 0.256-16.832 16.64-33.28 33.728-49.408 50.112-13.696-5.376-26.24-9.792-38.08-15.488-2.88-1.408-5.248-7.04-5.312-10.752-0.512-20.352-0.128-40.768-0.32-61.184-0.256-23.68-11.712-34.816-35.584-34.88h-57.472c-23.68 0.064-35.008 11.392-35.2 35.328A1970.56 1970.56 0 0 0 448 159.29600000000005c0.128 7.424-2.176 11.008-9.536 13.312-11.008 3.456-21.504 8.64-34.112 13.888zM384 384.128c0-71.168 56.512-128 127.552-128.128A127.232 127.232 0 0 1 640 383.23199999999997 127.232 127.232 0 0 1 511.808 512C440.768 512 384.064 455.232 384 384.128z"  horiz-adv-x="1024" />

    
    <glyph glyph-name="local" unicode="&#58984;" d="M512 768C370.496 768 256 647.808 256 499.2 256 297.6 512 0 512 0s256 297.6 256 499.2C768 647.808 653.504 768 512 768z m0-364.8c-50.496 0-91.456 43.008-91.456 96S461.504 595.2 512 595.2s91.456-43.008 91.456-96S562.496 403.2 512 403.2z"  horiz-adv-x="1024" />

    
    <glyph glyph-name="scroll-circle" unicode="&#58985;" d="M512 0A384 384 0 1 0 512 768a384 384 0 0 0 0-768z m0 128a256 256 0 1 1 0 512 256 256 0 0 1 0-512z"  horiz-adv-x="1024" />

    
    <glyph glyph-name="sidebar-viewmore" unicode="&#58986;" d="M192 288a96 96 0 1 0 0 192 96 96 0 0 0 0-192z m320 0a96 96 0 1 0 0 192 96 96 0 0 0 0-192z m320 0a96 96 0 1 0 0 192 96 96 0 0 0 0-192z"  horiz-adv-x="1024" />

    
    <glyph glyph-name="change" unicode="&#58987;" d="M812.032 704h-40.064a20.48 20.48 0 0 1-19.968-20.032V590.72c0-11.968-13.312-19.968-21.312-10.688a293.12 293.12 0 0 1-249.344 96 256.32 256.32 0 0 1-98.688-29.312c-16-8-32-17.28-45.312-27.968-9.344-6.656-10.688-21.376-2.688-30.72l28.032-27.968c6.656-6.656 17.28-8 25.344-2.688 16 10.688 33.28 20.032 51.968 28.032 8 2.688 17.28 5.312 26.688 8 83.968 16 163.968-17.344 209.28-72 16-18.688 4.032-30.72-9.28-30.72H573.312c-10.624 0-21.312-9.28-21.312-19.968v-40c0-10.688 10.688-19.968 21.312-19.968h242.688c9.344 0 16 8 16 17.28v256A20.48 20.48 0 0 1 811.968 704z m-121.344-472a19.328 19.328 0 0 1-28.032 0c-21.312-21.312-48-38.656-77.312-49.28-8-2.752-17.344-5.376-26.688-8.064-83.968-16-163.968 17.344-209.28 72-16 18.688-4.032 30.72 9.28 30.72h93.312a20.48 20.48 0 0 1 20.032 19.968V337.28a20.48 20.48 0 0 1-20.032 19.968H209.408a17.664 17.664 0 0 1-17.344-17.28v-256a20.48 20.48 0 0 1 20.032-20.032h39.936a20.48 20.48 0 0 1 20.032 20.032V177.28c0 11.968 13.312 19.968 21.312 10.624 61.376-69.312 152-105.28 249.344-96a256.32 256.32 0 0 1 98.688 29.376c29.312 14.656 54.656 33.28 75.968 54.656 8 8 8 21.312 0 28.032l-26.624 27.968z"  horiz-adv-x="1024" />

    
    <glyph glyph-name="hot" unicode="&#58988;" d="M800 325.76c0 165.632-70.016 252.928-111.744 290.176a25.024 25.024 0 0 1-27.456 4.032 24.448 24.448 0 0 1-14.208-23.424c1.536-28.8-3.84-56.064-9.92-77.056-22.144 57.408-71.04 154.368-156.416 183.232a24.64 24.64 0 0 1-22.4-3.52 24.96 24.96 0 0 1-10.176-21.248c3.136-70.592-47.744-153.152-76.8-194.304-8.32 24.512-23.744 57.6-51.456 82.944a24.512 24.512 0 0 1-28.16 3.584 24.704 24.704 0 0 1-13.184-25.6c8.448-54.592-6.144-81.536-23.04-112.64-14.592-26.88-31.04-57.28-31.04-106.24l0.128-1.088-0.128-1.088C224 173.12 345.152 64 512 64s288 109.12 288 259.52l-0.128 1.088 0.128 1.152z"  horiz-adv-x="1024" />

    
    <glyph glyph-name="toast-message" unicode="&#58989;" d="M512-127.99104a501.751219 501.751219 0 0 0-199.356511 39.9993 513.783009 513.783009 0 0 0-163.069146 109.566082 513.783009 513.783009 0 0 0-109.566083 163.069147A501.751219 501.751219 0 0 0 0.00896 384a501.751219 501.751219 0 0 0 39.9993 199.356511 513.783009 513.783009 0 0 0 109.566083 163.069147A513.783009 513.783009 0 0 0 312.643489 855.99174 501.751219 501.751219 0 0 0 512 895.99104a501.751219 501.751219 0 0 0 199.356511-39.9993 513.783009 513.783009 0 0 0 163.069147-109.566082 513.783009 513.783009 0 0 0 109.566082-163.069147A501.751219 501.751219 0 0 0 1023.99104 384a501.751219 501.751219 0 0 0-39.9993-199.356511 513.783009 513.783009 0 0 0-109.566082-163.069147 513.783009 513.783009 0 0 0-163.069147-109.566082A501.751219 501.751219 0 0 0 512-127.99104zM512 676.538881c-20.287645 0-37.567343-7.039877-51.839093-21.311627a70.526766 70.526766 0 0 1-21.311627-51.839093c0-20.287645 7.103876-37.567343 21.311627-51.775094 14.27175-14.207751 31.551448-21.311627 51.839093-21.311627 20.287645 0 37.567343 7.039877 51.839093 21.311627 14.207751 14.207751 21.311627 31.487449 21.311627 51.839093 0 20.287645-7.103876 37.567343-21.311627 51.839092A70.526766 70.526766 0 0 1 512 676.474882z m59.070966-275.387181c0 15.551728-5.759899 28.799496-17.279697 39.679305A58.558975 58.558975 0 0 1 512 457.15072a58.558975 58.558975 0 0 1-41.855267-16.319715 52.671078 52.671078 0 0 1-17.279698-39.679305v-261.435425c0-15.551728 5.759899-28.799496 17.279698-39.679306 11.519798-10.87981 25.471554-16.319714 41.855267-16.319714a58.558975 58.558975 0 0 1 41.855268 16.319714c11.519798 10.87981 17.279698 24.127578 17.279697 39.679306V401.1517z"  horiz-adv-x="1024" />

    
    <glyph glyph-name="refresh" unicode="&#58990;" d="M385.28 556.352c49.92-45.76 49.152-35.84-12.16-48.384l-12.672-2.624-105.344-22.848-12.608-2.688c-61.44-11.008-50.176-17.088-48.896 44.544l0.96 13.44 7.68 111.68 0.896 13.44c3.584 70.784 0.128 55.04 44.288 19.008l28.544-25.92 7.168-6.592A325.12 325.12 0 0 0 498.368 731.52C682.624 731.52 832 576 832 384.064c-0.064-191.872-149.376-347.52-333.632-347.52-116.672 0-219.712 62.592-279.168 157.248a47.616 47.616 0 0 0 12.864 64.256 43.52 43.52 0 0 0 61.696-13.376c43.776-69.504 118.912-115.2 204.608-115.2 135.04 0.192 244.224 114.048 244.48 254.592-0.256 140.608-109.44 254.4-244.48 254.592-55.296 0-106.112-19.072-147.072-51.328l33.92-30.976z"  horiz-adv-x="1024" />

    
    <glyph glyph-name="equal" unicode="&#58991;" d="M595.2 665.6l230.4-256c12.8-12.8 12.8-32 0-44.8l-230.4-256c-12.8-12.8-25.6-12.8-38.4 0l-38.40000001 44.8c-12.8 12.8-12.8 32 1e-8 44.8l160 172.8c12.8 12.8 12.8 32 0 44.8l-160 172.8c-12.8 12.8-12.8 32 0 44.79999999l38.4 44.80000001c12.8-6.4 25.6-6.4 38.4-12.8z m-320 0L512 403.2c6.4-6.4 6.4-25.6 0-38.4l-236.8-256c-12.8-12.8-25.6-12.8-38.4 0l-38.4 44.79999999c-6.4 6.4-6.4 25.6 0 38.40000001l160 172.8c12.8 12.8 12.8 32 0 44.8l-160 172.8c-12.8 12.8-12.8 32 0 44.79999999l38.4 44.80000001c12.8 0 32 0 38.4-6.4zM595.2 665.6l230.4-256c12.8-12.8 12.8-32 0-44.8l-230.4-256c-12.8-12.8-25.6-12.8-38.4 0l-38.40000001 44.8c-12.8 12.8-12.8 32 1e-8 44.8l160 172.8c12.8 12.8 12.8 32 0 44.8l-160 172.8c-12.8 12.8-12.8 32 0 44.79999999l38.4 44.80000001c12.8-6.4 25.6-6.4 38.4-12.8z m-320 0L512 403.2c6.4-6.4 6.4-25.6 0-38.4l-236.8-256c-12.8-12.8-25.6-12.8-38.4 0l-38.4 44.79999999c-6.4 6.4-6.4 25.6 0 38.40000001l160 172.8c12.8 12.8 12.8 32 0 44.8l-160 172.8c-12.8 12.8-12.8 32 0 44.79999999l38.4 44.80000001c12.8 0 32 0 38.4-6.4z"  horiz-adv-x="1024" />

    
    <glyph glyph-name="selected" unicode="&#58992;" d="M394.048 296.576L292.992 397.568A47.616 47.616 0 1 1 225.664 330.24l134.72-134.656a47.488 47.488 0 0 1 67.328 0l336.704 336.704a47.616 47.616 0 0 1-67.328 67.328L394.048 296.576z"  horiz-adv-x="1024" />

    
    <glyph glyph-name="tips-industry" unicode="&#58993;" d="M160 672h576a32 32 0 0 0 32-32v-544H160A32 32 0 0 0 128 128V640a32 32 0 0 0 32 32z m608-128h96a32 32 0 0 0 32-32v-384a32 32 0 0 0-32-32H768v448zM240 576a16 16 0 0 1-16-16v-32c0-8.832 7.168-16 16-16h416a16 16 0 0 1 16 16v32a16 16 0 0 1-16 16h-416z m256-160a16 16 0 0 1-16-16v-32c0-8.832 7.168-16 16-16h160a16 16 0 0 1 16 16v32a16 16 0 0 1-16 16h-160z m272 64v-320h48a16 16 0 0 1 16 16v288a16 16 0 0 1-16 16H768z m-272-192a16 16 0 0 1-16-16v-32c0-8.832 7.168-16 16-16h96a16 16 0 0 1 16 16v32a16 16 0 0 1-16 16h-96z m-256 160a16 16 0 0 1-16-16v-224c0-8.832 7.168-16 16-16h160a16 16 0 0 1 16 16v224A16 16 0 0 1 400 448h-160z"  horiz-adv-x="1024" />

    
    <glyph glyph-name="remove" unicode="&#58994;" d="M824 640H624V704c0 35.2-28.8 64-64 64h-96c-35.2 0-64-28.8-64-64v-64H200c-12.8 0-24-11.2-24-24v-48c0-12.8 11.2-24 24-24h624c12.8 0 24 11.2 24 24v48c0 12.8-11.2 24-24 24zM464 688c0 9.6 6.4 16 16 16h64c9.6 0 16-6.4 16-16V640h-96v48z m296-208h-496c-12.8 0-24-11.2-24-24v-376c0-44.8 35.2-80 80-80h384c44.8 0 80 35.2 80 80V456c0 12.8-11.2 24-24 24zM464 128c0-9.6-6.4-16-16-16h-32c-9.6 0-16 6.4-16 16V352c0 9.6 6.4 16 16 16H448c9.6 0 16-6.4 16-16V128z m160 0c0-9.6-6.4-16-16-16H576c-9.6 0-16 6.4-16 16V352c0 9.6 6.4 16 16 16h32c9.6 0 16-6.4 16-16V128z"  horiz-adv-x="1024" />

    
    <glyph glyph-name="company" unicode="&#58995;" d="M512 486.4c-12.8 0-32-12.8-38.4-19.2 0 0-166.4-147.2-198.4-179.2v-134.4c0-6.4 0-12.8 6.4-12.8 0-12.8 6.4-12.8 12.8-12.8h121.6s6.4 0 6.4 6.4l6.4 6.4v96s0 6.4 6.4 6.4l6.4 6.4h140.8s6.4 0 6.4-6.4l6.4-6.4v-96s0-6.4 6.4-6.4l6.4-6.4h128c6.4 0 12.8 0 12.8 6.4 6.4 6.4 6.4 12.8 6.4 12.8V281.6c-38.4 32-198.4 179.2-198.4 185.6-19.2 12.8-25.6 19.2-44.8 19.2z m320-140.8c0 12.8-6.4 19.2-12.8 25.6l-12.8 12.8c-6.4 6.4-19.2 19.2-32 25.6l-38.4 38.4c-12.8 12.8-32 25.6-44.8 44.8-12.8 12.8-32 25.6-44.8 44.8L608 576 576 608l-12.8 12.8C550.4 633.6 531.2 640 512 640c-19.2 0-38.4-6.4-51.2-25.6 0 0-12.8-6.4-25.6-19.2l-44.8-44.8c-19.2-12.8-38.4-32-57.6-51.2l-57.6-57.6c-19.2-12.8-32-25.6-51.2-38.4-12.8-12.8-19.2-25.6-19.2-25.6-6.4-6.4-12.8-12.8-12.8-25.6s6.4-19.2 12.8-25.6c6.4-6.4 19.2-12.8 25.6-12.8 12.8 0 19.2 0 25.6 6.4l19.2 19.2c12.8 6.4 25.6 19.2 38.4 32l44.8 44.8c19.2 19.2 32 32 51.2 44.8l38.4 38.4 25.6 25.6c12.8 6.4 25.6 12.8 38.4 12.8 12.8 0 25.6-6.4 38.4-19.2 0 0 12.8-6.4 19.2-19.2l38.4-38.4c12.8-12.8 32-32 51.2-44.8 19.2-12.8 32-32 51.2-44.8l38.4-38.4c12.8-6.4 19.2-12.8 19.2-12.8 6.4-6.4 12.8-6.4 25.6-6.4s19.2 0 25.6 12.8c12.8 0 12.8 12.8 12.8 19.2z"  horiz-adv-x="1024" />

    
    <glyph glyph-name="left" unicode="&#58996;" d="M608 115.20000000000005l-243.2 256c-6.4 6.4-6.4 19.2 0 25.6l243.2 256c6.4 6.4 19.2 6.4 25.6 0l25.60000001-25.6c6.4-6.4 6.4-19.2-1e-8-25.59999999l-192-204.80000001c-6.4-6.4-6.4-19.2 0-25.6l192-204.80000001c6.4-6.4 6.4-19.2 1e-8-25.59999999l-25.60000001-25.6c-6.4-6.4-19.2-6.4-25.6 0z"  horiz-adv-x="1024" />

    
    <glyph glyph-name="right" unicode="&#58997;" d="M416 652.8l243.2-256c6.4-6.4 6.4-19.2 0-25.6l-243.2-256c-6.4-6.4-19.2-6.4-25.6 0l-25.60000001 25.6c-6.4 6.4-6.4 19.2 1e-8 25.59999999l192 204.80000001c6.4 6.4 6.4 19.2 0 25.6l-192 204.80000001c-6.4 6.4-6.4 19.2-1e-8 25.59999999l25.60000001 25.6c6.4 6.4 19.2 6.4 25.6 0z"  horiz-adv-x="1024" />

    
    <glyph glyph-name="filtrate" unicode="&#58998;" d="M480.128 391.04v-331.52l-100.48 91.84v239.36a32 32 0 0 1-10.176 23.424L147.456 620.928a59.136 59.136 0 0 0 0 87.552h564.352a59.136 59.136 0 0 0 0-87.808L490.304 414.464a32 32 0 0 1-10.24-23.424z m223.552 100.8h165.248a27.072 27.072 0 0 0 0-54.144h-165.248a27.072 27.072 0 0 0 0 54.144z m0-162.432h165.248a27.072 27.072 0 0 0 0-54.144h-165.248a27.072 27.072 0 0 0 0 54.144z m0-162.496h165.248a27.072 27.072 0 0 0 0-54.144h-165.248a27.072 27.072 0 0 0 0 54.144z"  horiz-adv-x="1024" />

    
    <glyph glyph-name="contacts" unicode="&#58999;" d="M773.248 749.696c57.664 0 104.448-46.72 104.448-104.448v-522.496c0-57.664-46.72-104.448-104.448-104.448H303.04a104.512 104.512 0 0 0-104.512 104.448v52.288h-26.112a26.112 26.112 0 1 0 0 52.224h26.112v130.56h-26.112a26.112 26.112 0 0 0 0 52.288h26.112V540.8h-26.112a26.112 26.112 0 0 0 0 52.224h26.112v52.288c0 57.664 46.784 104.448 104.512 104.448h470.208zM530.368 429.888a68.48 68.48 0 1 1 0 136.96 68.48 68.48 0 0 1 0-136.96z m146.176-165.376c0 90.944-65.088 165.376-146.24 165.376C449.088 429.888 384 355.456 384 264.512c0-7.04 5.696-12.736 12.736-12.736h267.136c7.04 0 12.672 5.76 12.672 12.736z"  horiz-adv-x="1024" />

    
    <glyph glyph-name="marketing" unicode="&#59000;" d="M435.2 230.39999999999998c0-12.8 6.4-19.2 19.2-19.2h115.2c12.8 0 19.2 6.4 19.2 19.2V473.6L505.6 403.2l-70.4 38.4v-211.2z m230.4 0c0-12.8 6.4-19.2 19.2-19.2h115.2c12.8 0 19.2 6.4 19.2 19.2V512l-89.6 89.6-64-57.6v-313.6z m-467.2-6.4c0-12.8 6.4-12.8 19.2-12.8h115.2c12.8 0 19.2 6.4 19.2 19.2V480L313.6 512 198.4 422.4v-198.4z m0-140.8v38.4c0 6.4 6.4 12.8 19.2 12.8h582.4c12.8 0 19.2-6.4 19.2-12.8v-38.4c0-6.4-6.4-12.8-19.2-12.8H217.6c-6.4 0-19.2 6.4-19.2 12.8z m25.6 403.2c-12.8-6.4-25.6-6.4-32 0-12.8 12.8-12.8 32 0 38.4l121.6 102.4 179.2-108.8 192 179.2-38.4 38.4 166.4 51.2-57.6-160-38.4 38.4-217.6-211.2L320 569.6 224 486.4zM435.2 230.39999999999998c0-12.8 6.4-19.2 19.2-19.2h115.2c12.8 0 19.2 6.4 19.2 19.2V473.6L505.6 403.2l-70.4 38.4v-211.2z m230.4 0c0-12.8 6.4-19.2 19.2-19.2h115.2c12.8 0 19.2 6.4 19.2 19.2V512l-89.6 89.6-64-57.6v-313.6z m-467.2-6.4c0-12.8 6.4-12.8 19.2-12.8h115.2c12.8 0 19.2 6.4 19.2 19.2V480L313.6 512 198.4 422.4v-198.4z m0-140.8v38.4c0 6.4 6.4 12.8 19.2 12.8h582.4c12.8 0 19.2-6.4 19.2-12.8v-38.4c0-6.4-6.4-12.8-19.2-12.8H217.6c-6.4 0-19.2 6.4-19.2 12.8z m25.6 403.2c-12.8-6.4-25.6-6.4-32 0-12.8 12.8-12.8 32 0 38.4l121.6 102.4 179.2-108.8 192 179.2-38.4 38.4 166.4 51.2-57.6-160-38.4 38.4-217.6-211.2L320 569.6 224 486.4z"  horiz-adv-x="1024" />

    
    <glyph glyph-name="check-anything" unicode="&#59001;" d="M256 768h512a128 128 0 0 0 128-128v-512a128 128 0 0 0-128-128H256a128 128 0 0 0-128 128V640a128 128 0 0 0 128 128z m0-64a64 64 0 0 1-64-64v-512a64 64 0 0 1 64-64h512a64 64 0 0 1 64 64V640a64 64 0 0 1-64 64H256z m494.528-347.2c-2.048-11.2-14.08-20.8-30.08-20.8H303.552c-16 0-28.032 8-30.08 20.8a246.72 246.72 0 0 0 0 54.4c2.048 11.2 14.08 20.8 30.08 20.8h416.896c16 0 28.032-9.6 30.08-20.8 1.92-19.2 1.92-36.8 0-54.4z"  horiz-adv-x="1024" />

    
    <glyph glyph-name="down" unicode="&#59002;" d="M575.552 301.184l116.992 116.992 90.496-90.496-271.488-271.552-90.56 90.56L240 327.68l90.496 90.496 117.056-116.992V711.68h128v-410.496z"  horiz-adv-x="1024" />

    
    <glyph glyph-name="up" unicode="&#59003;" d="M447.552 466.688L330.496 349.632 240 440.128 511.552 711.68l90.496-90.496 180.992-181.056-90.496-90.496-116.992 117.056v-410.56h-128V466.688z"  horiz-adv-x="1024" />

    
    <glyph glyph-name="add-contacts" unicode="&#59004;" d="M800 368.64A208.64 208.64 0 0 1 721.28 384c-37.76 0-73.088-9.984-103.68-27.392-16.64 57.6-64.64 99.52-121.6 99.52-71.04 0-128-65.088-128-144.64 0-6.208 4.992-11.2 11.136-11.2h174.72A208.384 208.384 0 0 1 512 174.72000000000003c0-27.84 5.44-54.4 15.36-78.72H297.088c-50.56 0-91.456 40.96-91.456 91.456v45.696h-22.848a22.848 22.848 0 0 0 0 45.696h22.848V393.152h-22.848a22.848 22.848 0 0 0 0 45.696h22.848V553.152h-22.848a22.848 22.848 0 0 0 0 45.696h22.848v45.696c0 50.56 40.96 91.456 91.456 91.456h411.392c50.56 0 91.456-40.96 91.456-91.456v-275.84zM496.064 456.192a59.904 59.904 0 1 1 0 119.872 59.904 59.904 0 0 1 0-119.872zM721.28 352a177.792 177.792 0 0 0 177.28-177.28 177.792 177.792 0 0 0-177.28-177.28 177.792 177.792 0 0 0-177.28 177.28 177.792 177.792 0 0 0 177.28 177.28z m81.28-183.424v29.568c0 8.832-7.36 14.72-16.192 14.72h-42.88V257.28c0 8.896-7.36 14.784-16.192 14.784h-29.568c-8.896 0-13.312-5.888-13.312-14.72v-44.352H638.72c-8.896 0-13.312-5.952-13.312-14.784v-29.568c0-8.832 4.48-14.72 13.312-14.72h45.76v-44.352c0-8.896 4.48-14.784 13.312-14.784h29.568c8.832 0 16.192 5.888 16.192 14.72v44.352h42.88c8.832 0 16.256 5.952 16.256 14.784z"  horiz-adv-x="1024" />

    
    <glyph glyph-name="add-marketing" unicode="&#59006;" d="M448 198.39999999999998c0-12.8 6.4-19.2 19.2-19.2H576c12.8 0 19.2 6.4 19.2 19.2V428.8L512 358.4l-64 32v-192z m217.6 0c0-12.8 6.4-19.2 19.2-19.2h108.8c12.8 0 19.2 6.4 19.2 19.2V460.8l-83.2 83.2-57.6-51.2v-294.4z m-435.2-6.4c0-12.8 6.4-12.8 19.2-12.8h108.8c12.8 0 19.2 6.4 19.2 19.2V435.2l-38.4 25.6-108.8-83.2V192z m0-134.4v38.4c0 6.4 6.4 12.8 19.2 12.8h550.4c12.8 0 19.2-6.4 19.2-12.8v-38.4c0-6.4-6.4-12.8-19.2-12.8H243.2c-6.4 6.4-12.8 6.4-12.8 12.8z m19.2 384c-6.4-6.4-25.6-6.4-32 0-12.8 6.4-6.4 25.6 0 32l115.2 96 172.8-102.4 179.2 166.4-38.4 38.4 160 51.2-57.6-153.6-32 32-204.8-192L339.2 512 249.6 441.6zM448 198.39999999999998c0-12.8 6.4-19.2 19.2-19.2H576c12.8 0 19.2 6.4 19.2 19.2V428.8L512 358.4l-64 32v-192z m217.6 0c0-12.8 6.4-19.2 19.2-19.2h108.8c12.8 0 19.2 6.4 19.2 19.2V460.8l-83.2 83.2-57.6-51.2v-294.4z m-435.2-6.4c0-12.8 6.4-12.8 19.2-12.8h108.8c12.8 0 19.2 6.4 19.2 19.2V435.2l-38.4 25.6-108.8-83.2V192z m0-134.4v38.4c0 6.4 6.4 12.8 19.2 12.8h550.4c12.8 0 19.2-6.4 19.2-12.8v-38.4c0-6.4-6.4-12.8-19.2-12.8H243.2c-6.4 6.4-12.8 6.4-12.8 12.8z m19.2 384c-6.4-6.4-25.6-6.4-32 0-12.8 6.4-6.4 25.6 0 32l115.2 96 172.8-102.4 179.2 166.4-38.4 38.4 160 51.2-57.6-153.6-32 32-204.8-192L339.2 512 249.6 441.6z"  horiz-adv-x="1024" />

    
    <glyph glyph-name="line-attention" unicode="&#59007;" d="M896 428.8l-6.4 6.4C832 499.2 697.6 640 512 640 332.8 640 217.6 518.4 147.2 448l-12.8-12.8c-25.6-25.6-32-76.8-6.4-102.4C204.8 249.60000000000002 320 128 505.6 128c217.6 0 332.8 134.4 377.6 192l12.8 6.4c25.6 25.6 19.2 76.8 0 102.4z m-25.6-83.2l-6.4-6.4c-51.2-57.6-153.6-179.2-358.4-179.2-172.8 0-281.6 121.6-358.4 198.4-6.4 6.4-6.4 38.4 6.4 57.6l12.8 12.8c64 70.4 172.8 185.6 339.2 185.6 172.8 0 300.8-140.8 358.4-198.4l6.4-6.4c12.8-12.8 12.8-44.8 0-64zM512 544C422.4 544 352 473.6 352 384s70.4-166.4 166.4-166.4c89.6 0 166.4 70.4 166.4 166.4-6.4 89.6-83.2 160-172.8 160z m0-294.4c-70.4 0-128 57.6-128 134.4s57.6 128 128 128 134.4-57.6 134.4-134.4-64-128-134.4-128z"  horiz-adv-x="1024" />

    
    <glyph glyph-name="attention" unicode="&#59008;" d="M881.28 333.632c-47.104-55.424-155.776-194.112-373.568-194.112-180.544 0-295.04 125.696-368.384 205.056-16 17.28-15.552 59.968 4.48 80.96C208 492.8 323.712 627.84 507.648 627.84c188.864 0 326.08-158.08 375.872-210.752 14.656-15.36 19.2-58.24-2.304-83.456zM512.64 556.8a174.72 174.72 0 0 1-174.976-174.592 174.784 174.784 0 0 1 174.976-174.528 174.784 174.784 0 0 1 174.976 174.528A174.784 174.784 0 0 1 512.64 556.864z m0-278.976c-57.792 0-104.64 46.784-104.64 104.384 0 57.664 46.784 104.384 104.64 104.384 57.728 0 104.64-46.72 104.64-104.32 0-57.664-46.912-104.448-104.64-104.448z"  horiz-adv-x="1024" />

    
    <glyph glyph-name="send-approve" unicode="&#59009;" d="M507.776 703.552A141.568 141.568 0 0 1 366.72 561.7919999999999c0-50.24 26.56-96.448 68.864-121.856L421.888 328.32000000000005H306.944a43.648 43.648 0 0 1-43.456-43.776v-91.52c0-24.192 19.52-43.84 43.456-43.84h395.904a43.648 43.648 0 0 1 43.456 43.84v91.52a43.648 43.648 0 0 1-43.52 43.776h-109.44l-13.696 111.552a142.272 142.272 0 0 1 69.12 121.984 141.504 141.504 0 0 1-140.992 141.76z m221.312-590.272H280.704a24.256 24.256 0 0 1-24.128-24.448c0-13.44 10.816-24.32 24.128-24.32h448.384c13.312 0 24.128 10.88 24.128 24.32a24.256 24.256 0 0 1-24.128 24.448z"  horiz-adv-x="1024" />

    
    <glyph glyph-name="list-activity" unicode="&#59014;" d="M585.408 627.2c16.064 0 30.144 13.568 30.144 32.96 0 17.472-14.08 32.96-30.144 32.96H434.56c-16.064 0-30.08-13.568-30.08-32.96 0-17.408 14.016-32.96 30.08-32.96h150.848z m217.152-478.72V582.72c0 44.544-24.128 73.6-76.416 73.6h-68.352c0-3.84 1.984-7.68 1.984-11.584 0-27.136-20.096-54.272-44.224-54.272H404.416c-26.112 0-46.272 27.136-46.272 54.272 0 3.84 0 7.744 2.048 11.648h-70.4c-56.32 0-68.352-31.04-68.352-73.664v-434.112c0-46.528 20.096-73.6 72.384-73.6h432.32m-64.32 418.56c10.048 0 20.096-9.664 20.096-21.312 0-9.664-12.096-21.312-22.144-21.312H364.224c-10.048 0-18.112 11.648-18.112 21.312 0 9.664 10.048 21.312 20.096 21.312h295.616z m-295.616-286.848c-10.048 0-18.112 11.648-18.112 21.312 0 9.728 10.048 21.376 20.16 21.376h134.72c10.048 0 20.096-9.728 20.096-21.376 0-11.584-12.096-21.312-22.144-21.312H366.208z m-24.128 141.44c0 9.728 10.048 19.456 20.096 19.456h295.616c10.048 0 20.096-7.744 20.096-19.392 0-9.728-8.064-23.232-18.112-23.232H364.224c-10.048 0-22.144 13.504-22.144 23.232z m384.064-273.216c50.816 0 76.16 24.96 76.032 75.008-0.128 50.048-25.472 25.088-76.032-75.008z"  horiz-adv-x="1024" />

    
    <glyph glyph-name="new-activity" unicode="&#59015;" d="M775.744 571.264H241.088a47.552 47.552 0 0 1-48.64-46.784c0-26.048 21.632-46.848 48.64-46.848h8.064v-320c0-52.032 43.2-93.632 97.28-93.632h143.04V571.264h45.952V64h143.104c54.016 0 97.216 41.6 97.216 93.632v320h8.128c27.008 0 48.64 20.8 48.64 46.848 0 25.984-29.76 46.784-56.768 46.784z m-245.76 26.048s159.36 109.248 191.744 106.624c32.384-2.56 21.632-106.624 21.632-106.624H529.92z m-40.512 0S330.24 706.56 297.792 703.936c-32.448-2.56-21.632-106.624-21.632-106.624h213.312z"  horiz-adv-x="1024" />

    
    <glyph glyph-name="add-customs" unicode="&#59017;" d="M452.096 236.288c0-56.128 20.672-110.784 57.6-153.6 7.36-8.896 0-23.68-11.84-23.68H246.784c-60.544 0-98.944 57.6-87.104 113.728 11.776 67.968 81.28 103.424 138.88 128.512 25.024 11.84 60.48 25.088 70.848 54.656 11.776 30.976-8.896 63.488-31.04 84.16-53.12 50.24-63.488 129.984-39.872 196.48a147.712 147.712 0 0 0 138.88 101.888c64.96 1.472 121.088-33.984 144.64-94.528 23.68-59.072 16.32-137.344-20.608-192-22.144-32.512-50.24-50.24-75.328-94.528-20.672-35.456-33.92-81.28-33.92-121.088z m236.288 177.216a177.728 177.728 0 0 0 177.28-177.28 177.728 177.728 0 0 0-177.28-177.216 177.728 177.728 0 0 0-177.216 177.28 177.728 177.728 0 0 0 177.28 177.216z m90.112-192v29.504c0 8.896-7.36 14.784-16.256 14.784h-42.816v44.288c0 8.896-7.36 14.784-16.256 14.784h-29.504c-8.896 0-13.312-5.888-13.312-14.72v-44.352h-45.76c-8.896 0-13.312-5.888-13.312-14.72v-29.568c0-8.896 4.48-14.72 13.312-14.72h45.76v-44.352c0-8.896 4.48-14.784 13.312-14.784h29.504c8.896 0 16.256 5.888 16.256 14.72v44.352h42.88c8.832 0 16.192 5.888 16.192 14.72z"  horiz-adv-x="1024" />

    
    <glyph glyph-name="edit" unicode="&#59018;" d="M620.8 537.6h121.6c6.4 0 19.2 6.4 19.2 12.8s0 6.4-6.4 12.8L608 710.4c-6.4 0-6.4 6.4-12.8 6.4-12.8 0-19.2-6.4-19.2-19.2v-115.2c0-25.6 25.6-44.8 44.8-44.8z m268.8-147.2l-12.8 12.8c-6.4 6.4-19.2 6.4-32 0l-172.8-172.8v-44.8h44.8l172.8 172.8c12.8 6.4 12.8 19.2 0 32z m-140.8-275.2h-102.4c-25.6 0-44.8 19.2-44.8 44.8v76.8c0 12.8 0 25.6 12.8 32l140.8 134.4c6.4 6.4 6.4 12.8 6.4 12.8V448c0 12.8-12.8 19.2-19.2 19.2H576c-38.4 6.4-64 38.4-64 70.4V697.6c0 6.4-12.8 19.2-25.6 19.2H256c-38.4 0-64-32-64-64v-531.2c0-38.4 32-64 70.4-64h435.2c32 0 64 25.6 70.4 51.2-6.4 0-12.8 6.4-19.2 6.4zM281.6 518.4c0 12.8 12.8 19.2 19.2 19.2h89.6c12.8 0 19.2-12.8 19.2-19.2v-19.2c0-12.8-12.8-19.2-19.2-19.2H300.8c-12.8 0-19.2 12.8-19.2 19.2v19.2zM512 230.39999999999998c0-12.8-12.8-19.2-19.2-19.2h-192c-12.8 0-19.2 12.8-19.2 19.2v19.2c0 12.8 12.8 19.2 19.2 19.2h185.6c12.8 0 19.2-12.8 19.2-19.2l6.4-19.2z m44.8 134.4c0-12.8-12.8-19.2-19.2-19.2H300.8c-12.8 0-19.2 12.8-19.2 19.2V384c0 12.8 12.8 19.2 19.2 19.2h230.4c12.8 0 19.2-12.8 19.2-19.2l6.4-19.2zM620.8 537.6h121.6c6.4 0 19.2 6.4 19.2 12.8s0 6.4-6.4 12.8L608 710.4c-6.4 0-6.4 6.4-12.8 6.4-12.8 0-19.2-6.4-19.2-19.2v-115.2c0-25.6 25.6-44.8 44.8-44.8z m268.8-147.2l-12.8 12.8c-6.4 6.4-19.2 6.4-32 0l-172.8-172.8v-44.8h44.8l172.8 172.8c12.8 6.4 12.8 19.2 0 32z m-140.8-275.2h-102.4c-25.6 0-44.8 19.2-44.8 44.8v76.8c0 12.8 0 25.6 12.8 32l140.8 134.4c6.4 6.4 6.4 12.8 6.4 12.8V448c0 12.8-12.8 19.2-19.2 19.2H576c-38.4 6.4-64 38.4-64 70.4V697.6c0 6.4-12.8 19.2-25.6 19.2H256c-38.4 0-64-32-64-64v-531.2c0-38.4 32-64 70.4-64h435.2c32 0 64 25.6 70.4 51.2-6.4 0-12.8 6.4-19.2 6.4zM281.6 518.4c0 12.8 12.8 19.2 19.2 19.2h89.6c12.8 0 19.2-12.8 19.2-19.2v-19.2c0-12.8-12.8-19.2-19.2-19.2H300.8c-12.8 0-19.2 12.8-19.2 19.2v19.2zM512 230.39999999999998c0-12.8-12.8-19.2-19.2-19.2h-192c-12.8 0-19.2 12.8-19.2 19.2v19.2c0 12.8 12.8 19.2 19.2 19.2h185.6c12.8 0 19.2-12.8 19.2-19.2l6.4-19.2z m44.8 134.4c0-12.8-12.8-19.2-19.2-19.2H300.8c-12.8 0-19.2 12.8-19.2 19.2V384c0 12.8 12.8 19.2 19.2 19.2h230.4c12.8 0 19.2-12.8 19.2-19.2l6.4-19.2z"  horiz-adv-x="1024" />

    
    <glyph glyph-name="goto-detail" unicode="&#59019;" d="M794.496 682.688H556.8c-9.984 0-19.904-6.272-19.904-16.192v-37.312c0-9.984 8.704-21.184 19.904-21.184h98.304c11.2 0 17.408-12.416 8.704-19.904L452.288 376.51199999999994a18.048 18.048 0 0 1 0-26.112l26.112-26.112a18.048 18.048 0 0 1 26.112 0l211.584 211.52c7.488 7.488 19.904 2.56 19.904-8.704V428.8c0-9.984 9.984-21.12 19.904-21.12h36.096c9.984 0 18.688 11.136 18.688 21.12V665.216c0 11.2-6.272 17.472-16.192 17.472zM660.48 404.736l-44.288-45.632a37.504 37.504 0 0 1-11.776-27.392v-148.608a20.032 20.032 0 0 0-19.52-19.52H311.04a20.032 20.032 0 0 0-19.52 19.52V456.96c0 10.432 9.088 19.52 19.52 19.52h149.952a35.52 35.52 0 0 1 27.328 11.776l44.352 44.288c7.808 7.872 2.56 22.208-9.152 22.208H265.472a52.288 52.288 0 0 1-52.16-52.16v-365.056c0-28.672 23.488-52.16 52.16-52.16h365.056a52.288 52.288 0 0 1 52.16 52.16V395.584c0 11.776-14.336 16.96-22.208 9.152z"  horiz-adv-x="1024" />

    
    <glyph glyph-name="graphic-full-screen" unicode="&#59020;" d="M816 704H609.28c-13.248 0-17.28-12.032-6.592-22.656l65.28-65.344L548.032 496c-6.72-6.656-6.72-17.28 0-25.344l49.28-49.28c6.656-6.72 17.344-6.72 25.344 0l121.344 121.28 65.28-65.28c10.752-10.688 22.72-6.72 22.72 6.656V689.28c0 8-8 14.656-16 14.656zM211.968 64h205.376c13.312 0 17.28 14.72 6.656 25.344l-65.28 66.624 119.936 121.344a18.56 18.56 0 0 1 0 25.344L429.44 352c-6.72 6.656-17.344 6.656-25.344 0l-120-120-66.688 65.28C205.312 308.096 192 304 192 290.75199999999995v-205.376c0-9.344 10.688-21.312 20.032-21.312z"  horiz-adv-x="1024" />

    
    <glyph glyph-name="graphic-bubble" unicode="&#59021;" d="M576 89.60000000000002a192 192 0 1 0 0 384 192 192 0 0 0 0-384zM320 448a128 128 0 1 0 0 256 128 128 0 0 0 0-256z m403.2 38.4a108.8 108.8 0 1 0 0 217.6 108.8 108.8 0 0 0 0-217.6z m-454.4-371.2a76.8 76.8 0 1 0 0 153.6 76.8 76.8 0 0 0 0-153.6z m512-51.2a51.2 51.2 0 1 0 0 102.4 51.2 51.2 0 0 0 0-102.4z"  horiz-adv-x="1024" />

    
    <glyph glyph-name="graphic-download" unicode="&#59022;" d="M812.032 317.312h-40.064a20.48 20.48 0 0 1-19.968-19.968v-133.376a20.48 20.48 0 0 0-20.032-19.968H292.096a20.48 20.48 0 0 0-20.032 20.032V297.34400000000005a20.48 20.48 0 0 1-20.032 19.968h-39.936A20.48 20.48 0 0 1 192 297.34400000000005v-180.032c0-29.312 24-53.312 53.312-53.312h533.376a53.504 53.504 0 0 1 53.312 53.312V297.34400000000005a20.48 20.48 0 0 1-20.032 19.968z m-313.344-88a19.328 19.328 0 0 1 27.968 0l180.032 180.032a19.328 19.328 0 0 1 0 27.968l-28.032 28.032a19.328 19.328 0 0 1-27.968 0L576 390.656c-8-8-22.656-2.688-22.656 9.344V684.032C552 694.592 541.312 704 531.968 704h-39.936a20.48 20.48 0 0 1-20.032-20.032v-282.624c0-12.032-14.72-17.344-22.656-9.344L374.656 466.688a19.328 19.328 0 0 1-27.968 0l-28.032-29.376a19.328 19.328 0 0 1 0-27.968l180.032-180.032z"  horiz-adv-x="1024" />

    
    <glyph glyph-name="graphic-refresh" unicode="&#59023;" d="M812.032 704h-40.064a20.48 20.48 0 0 1-19.968-20.032V590.72c0-11.968-13.312-19.968-21.312-10.688a293.12 293.12 0 0 1-249.344 96 256.32 256.32 0 0 1-98.688-29.312c-16-8-32-17.28-45.312-27.968-9.344-6.656-10.688-21.376-2.688-30.72l28.032-27.968c6.656-6.656 17.28-8 25.344-2.688 16 10.688 33.28 20.032 51.968 28.032 8 2.688 17.28 5.312 26.688 8 83.968 16 163.968-17.344 209.28-72 16-18.688 4.032-30.72-9.28-30.72H573.312c-10.624 0-21.312-9.28-21.312-19.968v-40c0-10.688 10.688-19.968 21.312-19.968h242.688c9.344 0 16 8 16 17.28v256A20.48 20.48 0 0 1 811.968 704z m-121.344-472a19.328 19.328 0 0 1-28.032 0c-21.312-21.312-48-38.656-77.312-49.28-8-2.752-17.344-5.376-26.688-8.064-83.968-16-163.968 17.344-209.28 72-16 18.688-4.032 30.72 9.28 30.72h93.312a20.48 20.48 0 0 1 20.032 19.968V337.28a20.48 20.48 0 0 1-20.032 19.968H209.408a17.664 17.664 0 0 1-17.344-17.28v-256a20.48 20.48 0 0 1 20.032-20.032h39.936a20.48 20.48 0 0 1 20.032 20.032V177.27999999999997c0 11.968 13.312 19.968 21.312 10.624 61.376-69.312 152-105.28 249.344-96a256.32 256.32 0 0 1 98.688 29.376c29.312 14.656 54.656 33.28 75.968 54.656 8 8 8 21.312 0 28.032l-26.624 27.968z"  horiz-adv-x="1024" />

    
    <glyph glyph-name="graphic-tree" unicode="&#59024;" d="M537.6 186.688a64 64 0 1 0-51.2 0V325.312c-14.72 6.464-26.624 18.304-33.088 33.088A140.8 140.8 0 0 1 313.6 217.60000000000002v-30.912a64 64 0 1 0-51.2 0V217.60000000000002a192 192 0 0 0 190.912 192c6.464 14.72 18.304 26.624 33.088 33.088V541.6320000000001a83.2 83.2 0 1 0 51.2 0v-98.944c14.72-6.464 26.624-18.304 33.088-33.088a192 192 0 0 0 190.912-192v-30.912a64 64 0 1 0-51.2 0V217.60000000000002a140.8 140.8 0 0 1-139.712 140.8c-6.464-14.72-18.304-26.624-33.088-33.088v-138.624z"  horiz-adv-x="1024" />

    
    <glyph glyph-name="graphic-nets" unicode="&#59025;" d="M665.6 192c6.4-6.4 6.4-19.2 6.4-32 0-38.4-25.6-64-64-64-25.6 0-44.8 12.8-57.6 32l-236.8-32c-6.4-19.2-32-32-57.6-32-38.4 0-64 25.6-64 64 0 32 19.2 57.6 51.2 64V512c-32 6.4-51.2 32-51.2 64 0 38.4 25.6 64 64 64 25.6 0 44.8-12.8 57.6-38.4L512 646.4c6.4 32 32 57.6 64 57.6 38.4 0 64-25.6 64-64 0-19.2-6.4-32-19.2-44.8l128-211.2h19.2c38.4 0 64-25.6 64-64s-25.6-64-64-64c-12.8 0-19.2 0-32 6.4L665.6 192z m-19.2 19.2l70.4 70.4c-6.4 12.8-12.8 19.2-12.8 32l-160 12.8c-6.4-6.4-12.8-12.8-12.8-19.2l57.6-89.6c6.4 0 12.8 6.4 19.2 6.4 12.8 0 25.6-6.4 38.4-12.8z m-102.4-51.2c0 12.8 6.4 32 19.2 38.4l-64 89.6c-6.4-6.4-19.2-6.4-32-6.4s-32 6.4-38.4 12.8l-121.6-121.6c6.4-12.8 12.8-25.6 12.8-38.4l224 25.6zM268.8 512v-320h6.4l128 128c-12.8 6.4-19.2 25.6-19.2 44.8 0 19.2 6.4 32 12.8 44.8L288 518.4c-6.4 0-12.8 0-19.2-6.4z m326.4 64H576h-6.4l-51.2-147.2c19.2-12.8 32-38.4 32-64v-6.4l160-19.2c6.4 6.4 6.4 12.8 12.8 19.2L595.2 576z m-76.8 38.4L320 569.6c0-12.8-6.4-19.2-12.8-32l108.8-108.8c19.2 12.8 32 19.2 51.2 19.2h19.2l51.2 140.8c-6.4 6.4-12.8 12.8-19.2 25.6z"  horiz-adv-x="1024" />

    
    <glyph glyph-name="graphic-pickup" unicode="&#59026;" d="M256 448h512c38.4 0 64-25.6 64-64s-25.6-64-64-64H256c-38.4 0-64 25.6-64 64s25.6 64 64 64z"  horiz-adv-x="1024" />

    
    <glyph glyph-name="sidebar-content" unicode="&#59027;" d="M403.2 633.6h409.6a51.2 51.2 0 0 0 0-102.4H403.2a51.2 51.2 0 0 0 0 102.4z m-192 0h25.6a51.2 51.2 0 0 0 0-102.4h-25.6a51.2 51.2 0 0 0 0 102.4z m192-198.4h409.6a51.2 51.2 0 0 0 0-102.4H403.2a51.2 51.2 0 0 0 0 102.4z m-192 0h25.6a51.2 51.2 0 0 0 0-102.4h-25.6a51.2 51.2 0 0 0 0 102.4z m192-198.4h409.6a51.2 51.2 0 1 0 0-102.4H403.2a51.2 51.2 0 1 0 0 102.4z m-192 0h25.6a51.2 51.2 0 1 0 0-102.4h-25.6a51.2 51.2 0 1 0 0 102.4z"  horiz-adv-x="1024" />

    
    <glyph glyph-name="incident" unicode="&#59028;" d="M384.192 348.352h246.72v-34.368l82.24-45.44V616.448a59.072 59.072 0 0 1-18.048 42.368 62.592 62.592 0 0 1-43.648 17.536H281.408c-16.32 0-32-6.272-43.584-17.536a59.072 59.072 0 0 1-18.048-42.368v-454.144c0-15.872 6.464-31.104 18.048-42.368 11.52-11.264 27.264-17.536 43.584-17.536H588.8V184.32000000000005H384.192v40.96H588.8V307.456H384.192v40.96z m246.72 246.016v-40.96H384.192v40.96h246.72zM384.192 471.36h246.72v-40.96H384.192v40.96z m-61.632-286.976a20.48 20.48 0 1 0-0.064 41.024 20.48 20.48 0 0 0 0-40.96z m0 123.008a20.48 20.48 0 1 0 0 40.96 20.48 20.48 0 0 0 0-40.96z m0 122.944a20.48 20.48 0 1 0 0 41.088 20.48 20.48 0 0 0 0-41.088z m0 123.008a20.48 20.48 0 1 0 0 41.024 20.48 20.48 0 0 0 0-40.96z m302.4-316.672c0-32.64-0.256-231.04 0-239.936 0.256-8.96 4.608-7.04 6.848-4.032 48.512 64.32 76.032 100.096 82.432 107.328 10.048 11.264 12.672 9.536 20.992 11.584 5.376 1.344 45.76 5.952 129.664 15.616 5.76 0.64 9.472 3.52 4.224 6.848-5.312 3.328-188.16 105.408-216.192 120.32-28.032 14.912-27.968 14.848-27.968-17.728z"  horiz-adv-x="1024" />

    
    <glyph glyph-name="navbar-logout" unicode="&#59031;" d="M449.536 104v37.312a19.136 19.136 0 0 1-18.624 18.688H306.56a19.136 19.136 0 0 0-18.624 18.688V589.312c0 9.984 8.704 18.688 18.624 18.688h124.352a19.136 19.136 0 0 1 18.56 18.688v37.312a19.136 19.136 0 0 1-18.56 18.688H263.04a49.92 49.92 0 0 1-49.728-49.792v-497.792c0-27.392 22.4-49.792 49.728-49.792h167.872a19.136 19.136 0 0 1 18.56 18.688z m355.52 267.52a18.048 18.048 0 0 1 0 26.176L637.248 565.696a17.984 17.984 0 0 1-26.112 0l-26.112-26.112a18.048 18.048 0 0 1 0-26.176l69.632-69.696c7.424-7.424 2.496-21.12-8.704-21.12H381.184c-9.984 0-18.688-7.488-18.688-17.408v-37.376c0-9.92 8.704-19.84 18.688-19.84h263.552c11.136 0 16.128-13.76 8.704-21.184l-69.632-69.76a18.048 18.048 0 0 1 0-26.112l26.112-26.112a17.984 17.984 0 0 1 26.112 0l169.024 166.784z"  horiz-adv-x="1024" />

    
    <glyph glyph-name="navbar-exchange-role" unicode="&#59032;" d="M456.832 232.96000000000004c0-52.16 19.2-102.912 53.44-142.72 6.848-8.256 0-21.952-11.008-21.952h-232.96c-56.192 0-91.84 53.504-80.832 105.664 10.88 63.168 75.328 96.064 128.832 119.424 23.296 11.008 56.128 23.36 65.728 50.816 11.008 28.8-8.192 59.008-28.8 78.208-49.28 46.72-58.88 120.832-36.928 182.592 19.2 56.32 68.48 93.312 128.768 94.72 60.352 1.344 112.384-31.616 134.336-87.872 21.952-54.912 15.04-127.68-19.2-178.432-20.544-30.208-46.592-46.72-69.888-87.872-19.2-32.96-31.488-75.52-31.488-112.576z m219.264 164.736a165.12 165.12 0 0 0 164.48-164.736 165.12 165.12 0 0 0-164.48-164.672 165.12 165.12 0 0 0-164.48 164.672 165.12 165.12 0 0 0 164.48 164.736z m40.64-177.92a6.72 6.72 0 0 1 9.728 0l53.248 52.672a6.72 6.72 0 0 1 0 9.728l-53.248 53.12a6.72 6.72 0 0 1-9.728 0l-9.664-9.664a6.72 6.72 0 0 1 0-9.728l16.64-16.64c2.752-2.752 0.896-7.872-3.2-7.872H622.272a7.104 7.104 0 0 1-6.912-6.912v-13.888c0-3.712 3.648-6.912 6.912-6.912h98.112c4.16 0 6.016-5.12 3.2-7.872l-16.64-16.64a6.72 6.72 0 0 1 0-9.664l9.728-9.728zM635.52 130.55999999999995l9.216 9.664a6.72 6.72 0 0 1 0 9.728l-16.64 16.64c-2.816 2.752-0.96 7.872 3.2 7.872h99.072c3.712 0 6.976 3.2 6.976 6.912v13.888c0 3.712-3.712 6.912-6.976 6.912H632.192c-4.16 0-6.016 5.12-3.2 7.872l16.64 16.64a6.72 6.72 0 0 1 0 9.664l-10.24 9.728a6.72 6.72 0 0 1-9.664 0l-53.248-53.12a6.72 6.72 0 0 1 0-9.728l53.248-53.12c2.752-2.304 7.36-2.304 9.664 0.448z"  horiz-adv-x="1024" />

    
    <glyph glyph-name="graphic-focus" unicode="&#59033;" d="M827.392 341.568a318.272 318.272 0 0 0-273.024-272.96v-32.64a42.432 42.432 0 0 0-84.8 0v32.64a318.272 318.272 0 0 0-272.96 272.96h-32.64a42.432 42.432 0 0 0 0 84.864h32.64a318.336 318.336 0 0 0 272.96 272.96v32.64a42.432 42.432 0 0 0 84.864 0v-32.64a318.272 318.272 0 0 0 272.96-272.96h32.64a42.368 42.368 0 1 0 0-84.864h-32.64z m-147.392 78.464h68.992a239.808 239.808 0 0 1-200.96 201.024v-69.056a36.032 36.032 0 0 0-72.064 0V620.992a239.872 239.872 0 0 1-201.024-200.96h69.056a35.968 35.968 0 1 0 0-72.064H275.008a239.872 239.872 0 0 1 200.96-201.024v69.056a35.968 35.968 0 1 0 72.064 0v-69.12a239.808 239.808 0 0 1 200.96 201.152h-68.992a36.032 36.032 0 0 0 0 72zM512 341.568a42.432 42.432 0 1 0 0 84.864 42.432 42.432 0 0 0 0-84.864z"  horiz-adv-x="1024" />

    
    </font>
</defs>
</svg>
